<svg width="187" height="151" viewBox="0 0 187 151" fill="none" xmlns="http://www.w3.org/2000/svg">
<path d="M52.9917 133.27C52.9917 136.284 41.9981 138.728 28.4366 138.728C14.8752 138.728 3.88135 136.284 3.88135 133.27C3.88135 130.255 14.8752 127.812 28.4366 127.812C41.9981 127.812 52.9917 130.255 52.9917 133.27Z" fill="#E5E5E5"/>
<path d="M31.7737 110.633C31.7737 111.134 27.6458 111.54 22.5539 111.54C17.462 111.54 13.3341 111.134 13.3341 110.633C13.3341 110.131 17.462 109.725 22.5539 109.725C27.6458 109.725 31.7737 110.131 31.7737 110.633Z" fill="#382F2A"/>
<path d="M10.0602 79.5611C13.5306 83.9448 12.8103 87.967 10.6663 89.3193C8.52243 90.6716 4.57056 89.5654 2.2962 84.4583C-0.381051 78.4457 0.777627 73.4472 0.777627 73.4472C0.777627 73.4472 6.52538 75.0963 10.0602 79.5611Z" fill="#3F681B"/>
<path d="M1.86416 74.9758C2.01574 74.8734 5.25195 79.7441 5.5323 80.1833C7.03882 82.5448 8.49948 84.9309 9.89798 87.3575C12.7732 92.3478 15.3988 97.4762 17.75 102.733C18.3275 104.025 18.9119 105.313 19.4445 106.623C19.9571 107.884 20.4644 109.148 20.9742 110.411C21.4681 111.634 21.8954 112.887 22.3308 114.133C22.5278 114.696 22.7235 115.259 22.9064 115.828C22.9667 116.014 23.0265 116.202 23.0786 116.391C23.0978 116.461 23.1508 116.581 23.1306 116.655C23.13 116.659 23.1283 116.661 23.1257 116.662C22.9481 116.73 20.7991 111.219 20.5934 110.744C20.0423 109.473 19.4887 108.203 18.9429 106.93C18.3874 105.634 17.7874 104.359 17.1979 103.079C14.7985 97.8657 12.1908 92.7528 9.37974 87.7499C8.68915 86.5206 8.00952 85.2861 7.28655 84.0756C6.57579 82.885 5.87222 81.6905 5.16638 80.4975C4.50012 79.3715 3.78543 78.274 3.1024 77.1582C3.00418 76.9975 1.75539 75.0491 1.86416 74.9758C1.82439 75.0028 1.90375 74.9492 1.86416 74.9758Z" fill="#4F7F29"/>
<path d="M35.6007 106.296C32.0076 109.027 28.7731 108.381 27.716 106.629C26.6591 104.877 27.6148 101.706 31.7731 99.9519C36.6679 97.8877 40.6833 98.9027 40.6833 98.9027C40.6833 98.9027 39.2605 103.515 35.6007 106.296Z" fill="#4F7F29"/>
<path d="M41.062 89.3076C37.3976 95.8694 32.0307 97.0393 29.2499 95.0697C26.4693 93.1006 25.8146 87.6233 30.9924 82.1754C37.0877 75.7628 43.8927 74.6363 43.8927 74.6363C43.8927 74.6363 44.7944 82.6237 41.062 89.3076Z" fill="#3F681B"/>
<path d="M9.80159 88.9534C13.7352 92.7328 13.5696 96.7164 11.6755 98.3062C9.78142 99.8964 5.81521 99.3491 2.94247 94.7121C-0.439294 89.2531 0.0210843 84.2681 0.0210843 84.2681C0.0210843 84.2681 5.79504 85.1035 9.80159 88.9534Z" fill="#6AA537"/>
<path d="M15.7121 64.7955C19.1391 70.7757 17.5234 75.5469 14.662 76.8022C11.8004 78.0575 7.18567 75.9851 5.34962 69.3418C3.18817 61.5213 5.51705 55.6401 5.51705 55.6401C5.51705 55.6401 12.2215 58.7042 15.7121 64.7955Z" fill="#4F7F29"/>
<path d="M9.41893 64.0041C9.59919 63.9201 11.1158 67.2411 11.2561 67.5364C12.0647 69.2396 12.7869 70.966 13.4924 72.714C14.9934 76.4341 16.3171 80.2203 17.4235 84.0769C17.9927 86.061 18.5449 88.0378 19.0167 90.048C19.4817 92.0282 19.9409 93.9997 20.3061 96.0011C20.6609 97.9447 21.0317 99.8819 21.2809 101.842C21.5259 103.769 21.8201 105.696 21.9542 107.634C21.983 108.05 22.4049 112.872 22.164 112.895C21.9526 112.916 21.5566 109.296 21.5145 108.969C21.2707 107.07 20.9895 105.184 20.6871 103.294C20.0574 99.3588 19.3003 95.4495 18.3745 91.5731C17.4298 87.6194 16.3819 83.6923 15.1209 79.8265C13.9164 76.1334 12.6899 72.4322 11.2105 68.8376C11.054 68.4578 9.18722 64.1122 9.41893 64.0041C9.35711 64.0331 9.48075 63.9751 9.41893 64.0041Z" fill="#3F681B"/>
<path d="M19.7167 59.0565C17.2429 66.6289 20.1918 71.6487 23.725 72.3977C27.2579 73.1463 31.9935 69.7167 32.5112 61.7679C33.1205 52.4103 29.1038 46.3017 29.1038 46.3017C29.1038 46.3017 22.2364 51.3442 19.7167 59.0565Z" fill="#3F681B"/>
<path d="M41.8489 77.4267C41.9485 77.531 40.9987 78.5261 40.9317 78.6019C40.3236 79.2882 39.7245 79.9788 39.1283 80.6757C37.869 82.1477 36.6988 83.6835 35.5623 85.2515C33.2812 88.3992 31.3313 91.8171 29.6766 95.3326C28.0519 98.8615 26.6915 102.554 25.7508 106.326C25.2824 108.204 24.8611 110.086 24.5449 111.997C24.3951 112.903 24.2522 113.806 24.1183 114.715C24.104 114.812 23.9483 116.186 23.8095 116.174C23.671 116.161 23.7584 114.781 23.7615 114.683C23.7892 113.757 23.8698 112.844 23.9645 111.923C24.1653 109.969 24.5223 108.046 24.942 106.129C25.786 102.273 27.1306 98.4976 28.7804 94.9151C30.425 91.4204 32.3953 88.0015 34.7541 84.9368C35.9523 83.3804 37.1803 81.8495 38.5467 80.4359C39.1843 79.7761 39.8227 79.1284 40.4996 78.5092C40.7909 78.2462 41.0835 77.9841 41.3865 77.7346C41.4973 77.6439 41.6789 77.4436 41.8316 77.4229C41.838 77.4214 41.8439 77.4228 41.8489 77.4267C41.8018 77.3775 41.8961 77.4759 41.8489 77.4267Z" fill="#4F7F29"/>
<path d="M28.4068 48.8825C28.1536 48.8207 26.2335 56.9278 26.0758 57.6537C25.2284 61.5538 24.454 65.4635 23.7834 69.3979C22.4047 77.4867 21.4279 85.6368 20.8816 93.825C20.7474 95.8356 20.602 97.8448 20.5373 99.8592C20.4749 101.798 20.4212 103.738 20.3633 105.678C20.3074 107.557 20.355 109.442 20.3879 111.322C20.4025 112.171 20.4195 113.021 20.4553 113.87C20.467 114.15 20.4798 114.43 20.5038 114.709C20.5125 114.811 20.5009 114.999 20.5647 115.088C20.5669 115.092 20.5703 115.094 20.5749 115.095C20.8456 115.098 20.9962 106.671 21.0367 105.935C21.1455 103.964 21.2585 101.993 21.3591 100.022C21.4615 98.0156 21.6344 96.0156 21.7897 94.0132C22.4224 85.8612 23.3829 77.7406 24.6696 69.6662C24.9858 67.6822 25.2846 65.6967 25.653 63.7218C26.0151 61.7802 26.3656 59.8361 26.7198 57.8931C27.0543 56.0591 27.4677 54.2391 27.8293 52.4105C27.8813 52.1475 28.5885 48.9274 28.4068 48.8825C28.4731 48.8989 28.3406 48.8666 28.4068 48.8825Z" fill="#4F7F29"/>
<path d="M3.45434 88.9619C3.67133 88.7389 6.49545 91.6665 6.75182 91.9392C8.11581 93.3876 9.40702 94.9146 10.5938 96.5121C12.9511 99.6853 14.9826 103.074 16.6575 106.655C17.5721 108.61 18.3528 110.619 19.0305 112.667C19.3464 113.623 19.6336 114.593 19.8719 115.571C19.9096 115.742 20.3811 117.532 20.2014 117.583C20.0363 117.63 19.5702 116.13 19.5253 116.002C19.226 115.154 18.913 114.308 18.5897 113.468C17.8831 111.634 17.1303 109.813 16.285 108.038C14.5821 104.462 12.6131 101.038 10.3636 97.7785C9.19341 96.0825 7.93859 94.4479 6.63401 92.8538C6.00244 92.0821 5.35259 91.3263 4.70935 90.5637C4.58813 90.4252 3.3203 89.0994 3.45434 88.9619C3.40664 89.0111 3.50185 88.9131 3.45434 88.9619Z" fill="#4F7F29"/>
<path d="M36.1047 100.584C36.1352 100.666 35.6458 100.892 35.5988 100.916C35.2589 101.095 34.9207 101.273 34.5855 101.46C33.8616 101.866 33.1787 102.316 32.4957 102.785C31.0918 103.75 29.8339 104.995 28.7505 106.304C27.6949 107.61 26.7482 109.065 26.0725 110.607C25.7401 111.365 25.4315 112.127 25.1807 112.917C25.065 113.282 24.954 113.645 24.8485 114.013C24.8335 114.066 24.6917 114.663 24.6026 114.646C24.4949 114.625 24.6367 113.776 24.6461 113.7C24.7091 113.191 24.8273 112.676 24.963 112.181C25.2631 111.086 25.7035 110.055 26.1937 109.035C26.7297 108.012 27.4099 106.932 28.2494 105.894C29.1008 104.865 30.0242 103.984 30.9204 103.256C31.8046 102.588 32.7059 101.975 33.6906 101.462C34.1451 101.225 34.6321 101 35.1179 100.838C35.1969 100.811 36.0666 100.482 36.1047 100.584Z" fill="#3F681B"/>
<path d="M33.7202 79.4507C31.9622 85.8869 27.5869 88.0399 24.7705 86.9362C21.9541 85.8324 20.2214 81.2523 23.5213 75.4531C27.4057 68.6268 33.0294 66.2041 33.0294 66.2041C33.0294 66.2041 35.5106 72.8947 33.7202 79.4507Z" fill="#6AA537"/>
<path d="M29.7172 74.3231C29.8492 74.3931 29.2292 75.6986 29.1875 75.7951C28.8306 76.6228 28.4875 77.4539 28.1432 78.2869C27.4041 80.076 26.7877 81.9027 26.176 83.7376C25.5623 85.5788 25.0936 87.4794 24.6755 89.3732C24.2389 91.3505 23.8722 93.3472 23.626 95.3573C23.1758 99.0349 23.0585 102.714 23.1654 106.414C23.2523 108.187 23.3721 109.951 23.5753 111.716C23.675 112.581 23.7828 113.444 23.8958 114.308C23.9082 114.403 24.1273 115.726 23.9912 115.752C23.855 115.778 23.5687 114.468 23.5449 114.375C23.3212 113.496 23.1489 112.615 22.9875 111.723C22.6515 109.865 22.4633 107.996 22.3231 106.115C22.0347 102.245 22.2275 98.3119 22.7433 94.4693C23.2831 90.6744 24.139 86.8583 25.4583 83.255C26.1077 81.4809 26.7838 79.7236 27.6124 78.0233C27.7754 77.6889 29.4731 74.1932 29.7172 74.3231C29.6569 74.2912 29.7776 74.3549 29.7172 74.3231Z" fill="#4F7F29"/>
<path d="M31.4888 83.2863C32.2591 88.2071 29.9376 91.0107 27.6823 91.1197C25.427 91.2288 22.847 88.639 23.3215 83.6815C23.8803 77.8451 26.9695 74.4764 26.9695 74.4764C26.9695 74.4764 30.7041 78.2747 31.4888 83.2863Z" fill="#4F7F29"/>
<path d="M27.4453 81.1279C27.5886 81.1178 27.7556 83.751 27.7739 83.986C27.8804 85.3446 27.9225 86.696 27.9475 88.0579C28.0009 90.9561 27.9176 93.8533 27.6695 96.7418C27.5418 98.2278 27.4044 99.7046 27.2044 101.183C27.0074 102.639 26.8087 104.089 26.5387 105.534C26.2766 106.937 26.0272 108.34 25.6898 109.728C25.358 111.092 25.0595 112.468 24.6497 113.811C24.562 114.099 23.6028 117.463 23.4341 117.417C23.2862 117.376 23.9525 114.831 24.0089 114.598C24.3341 113.254 24.631 111.908 24.9144 110.555C25.5046 107.736 26.0024 104.902 26.3773 102.047C26.7598 99.1342 27.0656 96.2133 27.2117 93.279C27.3516 90.4754 27.4785 87.6607 27.4074 84.8528C27.3999 84.556 27.2611 81.141 27.4453 81.1279C27.3961 81.1313 27.4945 81.1245 27.4453 81.1279Z" fill="#3F681B"/>
<path d="M23.6292 80.9941C23.3677 87.0616 19.9186 89.855 17.1963 89.4438C14.474 89.0322 12.0119 85.3164 13.7706 79.5037C15.8408 72.6615 20.3434 69.3763 20.3434 69.3763C20.3434 69.3763 23.8954 74.814 23.6292 80.9941Z" fill="#6AA537"/>
<path d="M19.0419 77.2519C19.1732 77.2876 18.8862 78.5709 18.8687 78.6655C18.719 79.472 18.5821 80.2789 18.4449 81.0873C18.1497 82.8248 17.9711 84.5704 17.7984 86.3223C17.6253 88.0801 17.5929 89.8614 17.6039 91.6269C17.6153 93.4695 17.6928 95.3161 17.8801 97.15C18.2222 100.505 18.8607 103.794 19.702 107.056C20.1371 108.612 20.5991 110.154 21.1357 111.679C21.3987 112.427 21.6685 113.17 21.9429 113.914C21.9733 113.997 22.4344 115.126 22.3189 115.177C22.2033 115.228 21.685 114.123 21.6451 114.045C21.2691 113.31 20.9383 112.563 20.6151 111.803C19.9423 110.223 19.3982 108.602 18.8941 106.961C17.8572 103.584 17.2349 100.054 16.9172 96.5395C16.6305 93.0627 16.6201 89.5028 17.0641 86.0386C17.2826 84.333 17.5279 82.637 17.9204 80.9609C17.9975 80.6312 18.7991 77.1863 19.0419 77.2519C18.982 77.2355 19.1019 77.2683 19.0419 77.2519Z" fill="#4F7F29"/>
<path d="M22.5539 111.54C17.462 111.54 13.3341 111.134 13.3341 110.633L16.7299 132.846C16.7299 132.846 18.5553 133.271 22.5539 133.271C26.5526 133.271 28.378 132.846 28.378 132.846L31.7737 110.633C31.7737 111.134 27.6458 111.54 22.5539 111.54Z" fill="#EA562F"/>
<path d="M65.9758 120.299C65.2986 120.163 59.5458 119.229 58.8566 119.09C58.1674 118.952 58.3508 118.108 58.9092 118C60.3358 117.723 62.4806 117.556 63.2209 117.424C63.5477 117.365 63.8233 117.297 64.0322 117.114C64.1973 116.97 64.3382 116.391 64.4589 115.73C65.136 115.82 66.3797 115.673 67.0371 115.858C66.831 116.544 66.6968 117.141 66.7629 117.599C66.8561 118.251 67.0819 118.685 66.9849 119.431C66.9608 119.615 66.6524 120.435 65.9758 120.299Z" fill="#FFBB88"/>
<path d="M66.9849 119.431C67.0805 118.697 66.8517 118.248 66.775 117.598C65.8594 117.855 64.8025 117.688 64.024 117.1C63.7967 117.274 63.524 117.37 63.2209 117.424C62.4806 117.556 60.3358 117.723 58.9092 118C58.3508 118.108 58.1674 118.952 58.8566 119.09C59.5458 119.229 65.2986 120.163 65.9758 120.299C66.6524 120.435 66.9608 119.615 66.9849 119.431Z" fill="#C4001D"/>
<path d="M58.9057 117.97C58.2995 118.072 58.1673 118.952 58.8565 119.09C59.0177 119.123 59.4559 119.198 60.0413 119.298C60.0765 118.803 60.0794 118.273 60.0037 117.792C59.6166 117.846 59.2426 117.913 58.9057 117.97Z" fill="#EDEEEF"/>
<path d="M67.0196 119.406C67.0901 118.866 66.9497 118.504 66.8584 118.078C66.0008 118.453 65.3362 119.254 65.0293 120.133C65.496 120.212 65.8917 120.281 66.0283 120.309C66.7054 120.445 66.996 119.591 67.0196 119.406Z" fill="#F7F7F8"/>
<path d="M60.2836 118.542C60.3082 118.567 60.3386 118.583 60.371 118.589C60.4231 118.6 60.4791 118.585 60.5201 118.546L60.9993 118.083L61.9395 118.529C61.952 118.536 61.9651 118.54 61.9781 118.542C62.0519 118.557 62.1287 118.521 62.162 118.45C62.2015 118.367 62.1663 118.267 62.0828 118.227L61.2566 117.835L61.4569 117.642C61.1007 117.683 60.7247 117.727 60.3521 117.776L60.6769 117.93L60.2879 118.305C60.2213 118.369 60.2194 118.475 60.2836 118.542Z" fill="#F7F7F8"/>
<path d="M62.4395 118.371C62.4573 118.382 62.4762 118.39 62.495 118.393C62.5616 118.406 62.6321 118.378 62.6702 118.318L63.0664 117.682L63.7517 118.219C63.773 118.235 63.7971 118.246 63.8217 118.25C63.8821 118.263 63.9462 118.241 63.9868 118.19C64.0437 118.117 64.0307 118.012 63.9578 117.955L63.2667 117.415C63.2513 117.418 63.2363 117.421 63.2209 117.424C63.1084 117.444 62.9636 117.465 62.7942 117.487L62.3864 118.141C62.3372 118.219 62.3613 118.322 62.4395 118.371Z" fill="#F7F7F8"/>
<path d="M58.3855 118.596C58.385 118.815 58.5173 119.023 58.8305 119.087C59.5197 119.225 65.3517 120.173 66.0283 120.309C66.4144 120.387 66.6809 120.153 66.8425 119.904L58.3855 118.596Z" fill="#504F53"/>
<path d="M130.77 113.344C130.004 113.754 129.199 114.162 128.687 114.398C127.645 114.877 127.991 115.794 129.984 115.814C131.977 115.834 134.839 114.143 135.558 113.934C136.195 113.748 136.332 113.128 136.32 112.955C136.288 112.491 136.165 112.133 136.04 111.753C135.476 112.357 134.647 113.142 133.353 113.663C131.853 114.268 131.107 113.976 130.77 113.344Z" fill="#F93E48"/>
<path d="M146.571 112.932C145.994 113.582 145.381 114.245 144.982 114.643C144.172 115.454 144.814 116.195 146.69 115.522C148.566 114.849 150.665 112.27 151.266 111.825C151.799 111.429 151.712 110.8 151.641 110.642C151.45 110.218 151.211 109.925 150.961 109.612C150.642 110.374 150.137 111.398 149.104 112.336C147.907 113.423 147.107 113.408 146.571 112.932Z" fill="#F93E48"/>
<path d="M114.481 113.073C113.43 112.651 111.145 111.585 110.462 111.151C109.974 110.843 109.739 110.386 109.61 109.466C109.594 109.35 109.598 108.416 109.598 108.416L109.658 107.111C108.806 107.153 107.956 107.195 107.17 107.234L107.276 108.597C107.276 108.597 107.325 109.372 107.321 109.526C107.289 110.605 106.896 111.113 106.878 112.024C106.875 112.195 107.04 112.801 107.679 112.953C108.397 113.124 111.304 114.651 113.27 114.535C115.236 114.417 115.532 113.495 114.481 113.073Z" fill="#FFBB88"/>
<path d="M114.481 113.073C113.43 112.651 110.22 110.974 110.123 110.865C109.132 111.337 108.14 111.259 107.149 110.634C106.567 111.343 106.585 112.596 107.041 112.776C108.467 113.342 111.483 114.856 113.449 114.74C115.415 114.622 115.532 113.495 114.481 113.073Z" fill="#7C431D"/>
<path d="M112.598 112.183C112.575 112.187 112.553 112.19 112.529 112.195C112.512 112.169 112.495 112.147 112.479 112.123C112.286 112.026 112.094 111.928 111.906 111.832C111.966 111.954 112.058 112.11 112.16 112.281C111.739 112.395 111.436 112.541 111.455 112.627C111.477 112.72 111.87 112.709 112.35 112.606C112.567 112.99 112.741 113.287 112.833 113.259C112.908 113.237 112.877 112.91 112.703 112.517C112.829 112.48 112.941 112.44 113.036 112.401C112.892 112.33 112.745 112.257 112.598 112.183Z" fill="black"/>
<path d="M110.628 111.855C110.739 112.183 110.877 112.407 110.958 112.376C111.035 112.347 111.042 112.116 110.983 111.825C111.253 111.793 111.481 111.742 111.624 111.686C111.471 111.607 111.326 111.531 111.187 111.458C111.098 111.459 111.005 111.462 110.906 111.47C110.891 111.403 110.875 111.341 110.858 111.283C110.741 111.22 110.635 111.163 110.542 111.112C110.532 111.218 110.534 111.355 110.55 111.51C110.173 111.569 109.901 111.663 109.909 111.745C109.917 111.83 110.223 111.873 110.628 111.855Z" fill="black"/>
<path d="M104.614 113.977C103.564 113.555 101.278 112.488 100.595 112.055C100.108 111.746 99.8729 111.289 99.7435 110.369C99.7276 110.254 99.7315 109.319 99.7315 109.319L99.7918 108.015C98.9395 108.057 98.0901 108.099 97.3034 108.138L97.4101 109.501C97.4101 109.501 97.4588 110.275 97.4545 110.429C97.4226 111.508 97.0297 112.017 97.0119 112.927C97.0085 113.098 97.1741 113.704 97.8126 113.856C98.5307 114.027 101.438 115.555 103.404 115.438C105.37 115.321 105.665 114.399 104.614 113.977Z" fill="#FFBB88"/>
<path d="M104.614 113.977C103.564 113.555 100.354 111.879 100.257 111.769C99.2658 112.241 98.274 112.163 97.2826 111.538C96.7006 112.248 96.7189 113.5 97.1745 113.681C98.6007 114.246 101.617 115.761 103.583 115.644C105.549 115.527 105.665 114.399 104.614 113.977Z" fill="#7C431D"/>
<path d="M102.731 113.087C102.709 113.092 102.687 113.095 102.663 113.099C102.646 113.074 102.629 113.052 102.612 113.027C102.42 112.93 102.228 112.832 102.04 112.736C102.099 112.858 102.191 113.014 102.293 113.185C101.872 113.3 101.569 113.445 101.589 113.531C101.61 113.624 102.004 113.613 102.483 113.511C102.701 113.894 102.874 114.192 102.966 114.163C103.042 114.141 103.01 113.815 102.837 113.422C102.963 113.385 103.075 113.345 103.17 113.306C103.026 113.235 102.879 113.162 102.731 113.087Z" fill="black"/>
<path d="M100.762 112.758C100.873 113.086 101.011 113.31 101.091 113.279C101.168 113.251 101.175 113.02 101.117 112.729C101.386 112.696 101.615 112.645 101.758 112.59C101.605 112.511 101.459 112.434 101.32 112.361C101.232 112.362 101.138 112.366 101.039 112.373C101.025 112.307 101.008 112.245 100.992 112.186C100.875 112.124 100.769 112.067 100.676 112.015C100.665 112.122 100.667 112.259 100.684 112.414C100.306 112.473 100.035 112.567 100.042 112.649C100.05 112.734 100.356 112.776 100.762 112.758Z" fill="black"/>
<path d="M178.824 121.905H32.9368V90.2471C32.9368 78.6752 42.3178 69.2944 53.8898 69.2944H157.871C169.443 69.2944 178.824 78.6752 178.824 90.2471V121.905Z" fill="#26696C"/>
<path d="M41.1592 149.629H35.5299V138.625H41.1592V149.629Z" fill="#9CA0A2"/>
<path d="M41.9185 149.486C41.9185 149.848 41.6252 150.141 41.2634 150.141H35.4255C35.0637 150.141 34.7704 149.848 34.7704 149.486V149.341C34.7704 148.98 35.0637 148.687 35.4255 148.687H41.2634C41.6252 148.687 41.9185 148.98 41.9185 149.341V149.486Z" fill="#030303"/>
<path d="M176.231 149.629H170.602V138.625H176.231V149.629Z" fill="#9CA0A2"/>
<path d="M176.99 149.486C176.99 149.848 176.697 150.141 176.335 150.141H170.497C170.135 150.141 169.842 149.848 169.842 149.486V149.341C169.842 148.98 170.135 148.687 170.497 148.687H176.335C176.697 148.687 176.99 148.98 176.99 149.341V149.486Z" fill="#030303"/>
<path d="M42.9685 129.913H25.2473C25.2473 129.913 25.2473 114.69 25.2473 109.59C25.2473 104.49 33.8588 102.528 33.8588 102.528H42.9685V129.913Z" fill="#2E7980"/>
<path d="M168.792 129.913H186.514C186.514 129.913 186.514 114.69 186.514 109.59C186.514 104.49 177.902 102.528 177.902 102.528H168.792V129.913Z" fill="#2E7980"/>
<path d="M173.095 126.536H38.662L42.9685 120.487H168.792L173.095 126.536Z" fill="#1F5660"/>
<path d="M173.095 109.589V126.408H38.666V109.589C38.666 107.633 37.0805 106.048 35.1245 106.048H28.7888C26.8328 106.048 25.2473 107.633 25.2473 109.589V137.247C25.2473 139.203 26.8328 140.788 28.7888 140.788H182.972C184.928 140.788 186.514 139.203 186.514 137.247V109.589C186.514 107.633 184.928 106.048 182.972 106.048H176.636C174.68 106.048 173.095 107.633 173.095 109.589Z" fill="#26696C"/>
<path d="M163.139 66.6806H47.3888C44.8744 66.6806 42.8361 68.6695 42.8361 71.1222V117.828H168.924V71.1222C168.924 68.6695 166.335 66.6806 163.139 66.6806Z" fill="#418F9B"/>
<path d="M63.7943 81.3024C63.7943 81.8637 63.3397 82.3184 62.7789 82.3184C62.2176 82.3184 61.7629 81.8637 61.7629 81.3024C61.7629 80.7416 62.2176 80.287 62.7789 80.287C63.3397 80.287 63.7943 80.7416 63.7943 81.3024Z" fill="#50A7BC"/>
<path d="M167.683 111.456C157.437 109.535 54.3237 109.535 44.0778 111.456C42.0285 112.18 35.6927 115.832 35.6927 117.864C35.6927 119.828 176.068 119.828 176.068 117.864C176.068 115.832 169.732 112.18 167.683 111.456Z" fill="#50A7BC"/>
<path d="M175.347 117.171C152.467 114.498 59.2938 114.498 36.4135 117.171C36.0153 117.218 35.6927 117.529 35.6927 117.863C35.6927 121.447 35.6927 125.032 35.6927 128.616C35.6926 128.95 36.0153 129.26 36.4135 129.308C59.2933 131.981 152.467 131.981 175.347 129.308C175.745 129.26 176.068 128.95 176.068 128.616C176.068 125.032 176.068 121.447 176.068 117.863C176.068 117.529 175.745 117.218 175.347 117.171Z" fill="#2E7980"/>
<path d="M42.734 101.391C42.6701 101.119 42.5423 100.95 42.3679 100.86C42.1958 100.769 41.9874 100.757 41.7906 100.808C41.5936 100.858 41.4079 100.973 41.2805 101.13C41.1555 101.288 41.0787 101.491 41.1244 101.702C41.2507 102.383 41.4624 103.201 41.7838 104.089C42.1038 104.977 42.5513 105.929 43.129 106.866C43.4119 107.338 43.7428 107.796 44.0886 108.252C44.4477 108.696 44.8217 109.14 45.2371 109.547C46.053 110.377 46.9866 111.094 47.945 111.674C48.902 112.259 49.8938 112.691 50.8257 112.993C51.7586 113.296 52.6341 113.463 53.3759 113.533C53.5622 113.548 53.7379 113.567 53.9068 113.57C54.0747 113.573 54.2335 113.575 54.3817 113.574C54.679 113.567 54.9353 113.539 55.1438 113.509C55.5622 113.428 55.789 113.321 55.791 113.184C55.7939 112.898 54.9092 112.737 53.5912 112.351C52.9319 112.159 52.1636 111.909 51.3503 111.564C50.5371 111.218 49.6761 110.782 48.8465 110.231C47.1737 109.151 45.6541 107.599 44.6243 105.937C44.1025 105.114 43.6874 104.278 43.3833 103.495C43.0779 102.714 42.866 101.992 42.734 101.391Z" fill="#C9804F"/>
<path d="M42.7794 108.126C41.5117 106.524 40.6477 104.674 40.2419 102.672C40.1981 102.456 40.4675 102.555 40.499 102.711C40.8868 104.624 41.708 106.403 42.9197 107.934C43.0307 108.074 42.9172 108.3 42.7794 108.126Z" fill="white"/>
<path d="M45.6397 105.563C44.9693 104.345 44.4169 103.075 43.9885 101.753C43.9207 101.543 44.1637 101.539 44.2201 101.714C44.6394 103.007 45.1747 104.252 45.8308 105.444C45.9294 105.623 45.7399 105.745 45.6397 105.563Z" fill="white"/>
<path d="M46.1047 103.545C45.8868 103.052 45.6689 102.558 45.4507 102.065C45.3591 101.857 45.5624 101.922 45.6242 102.062C45.8421 102.556 46.06 103.049 46.278 103.542C46.3698 103.75 46.1664 103.685 46.1047 103.545Z" fill="white"/>
<path d="M41.1459 107.153C40.3476 106.288 39.8526 105.235 39.6906 104.071C39.6652 103.887 39.9012 104.108 39.9154 104.21C40.0626 105.269 40.5096 106.208 41.2345 106.992C41.3423 107.109 41.2984 107.318 41.1459 107.153Z" fill="white"/>
<path d="M59.6886 79.64C59.9796 79.2298 60.5081 79.0329 61.0105 79.0493C61.5134 79.0657 61.9926 79.2689 62.4236 79.5281C63.3806 80.1033 64.1398 80.9484 64.884 81.7805C65.302 82.2486 65.7204 82.7163 66.1388 83.1844C66.2701 83.3316 66.4096 83.4967 66.4139 83.6941C66.4202 83.9706 66.1577 84.181 65.8961 84.2708C65.1871 84.5131 64.3951 84.1984 63.8165 83.7226C63.2378 83.2467 62.8029 82.6212 62.2706 82.0937C61.8985 81.725 61.4448 81.3915 60.9222 81.3558C60.4 81.32 59.8256 81.695 59.815 82.2187C59.4907 82.0416 59.1664 81.8644 58.842 81.6873C59.4082 81.197 59.2552 80.251 59.6886 79.64Z" fill="#683818"/>
<path d="M47.5804 94.2726C47.8903 92.5661 48.3001 90.8605 49.0617 89.3026C49.7557 87.8836 52.484 82.5632 53.29 81.6626C54.3136 80.5183 56.0342 80.2823 57.555 80.4961C58.2499 80.5941 58.9526 80.778 59.5173 81.1945C60.9372 82.2422 61.0815 84.4063 62.4135 85.5637C63.2625 86.3011 64.4401 86.4971 65.5525 86.6636L66.9734 86.8764C67.317 86.928 67.5916 87.193 67.651 87.5357C67.8286 88.5622 67.887 89.6254 67.469 90.5656C67.0675 91.4681 66.2605 92.1457 65.3629 92.5583C64.4652 92.9705 63.4768 93.1413 62.4946 93.249C62.3658 93.263 62.2359 93.276 62.1061 93.2881C62.5366 95.5154 62.721 97.7987 62.9005 100.065C62.9604 100.825 63.0207 101.585 63.0786 102.345C67.1143 105.341 63.5853 112.401 62.8783 113.232C62.0443 114.21 60.5878 114.289 59.3021 114.294C57.0998 114.302 54.8976 114.309 52.6949 114.317C51.7123 114.321 50.6684 114.307 49.8387 113.78C48.8643 113.16 48.4203 111.983 48.1043 110.873C46.5764 105.501 46.5822 99.7673 47.5804 94.2726Z" fill="#D68F5F"/>
<path d="M65.0606 86.5862C65.2252 86.6132 65.3893 86.6388 65.5524 86.6629L66.9733 86.8758C67.3169 86.9274 67.5915 87.1924 67.6509 87.535C67.7981 88.3835 67.8623 89.257 67.6441 90.0654C66.0365 89.7681 64.7503 88.3405 65.0606 86.5862Z" fill="black"/>
<path d="M60.1084 85.2604C60.6084 85.4592 61.2286 85.342 61.5959 84.9481C61.9632 84.5548 62.0303 83.9018 61.7214 83.4607C61.5249 83.1803 61.1939 82.9988 60.8517 82.9829C60.5095 82.9674 60.1635 83.1166 59.9395 83.3757C59.7513 83.5939 59.6524 83.8748 59.5887 84.1552C59.5409 84.368 59.5119 84.5973 59.594 84.8C59.6823 85.0196 59.8889 85.1726 60.1084 85.2604Z" fill="#D68F5F"/>
<path d="M54.3773 84.1615C54.1253 84.5404 54.1143 85.0737 54.3758 85.4463C54.6369 85.8188 55.1654 85.9878 55.5843 85.8097C55.8507 85.6958 56.0583 85.4535 56.1311 85.1736C56.2035 84.8932 56.1403 84.5814 55.9651 84.3507C55.8179 84.1572 55.6031 84.0259 55.3816 83.9245C55.2142 83.8478 55.0293 83.7841 54.8478 83.8164C54.6509 83.8512 54.4878 83.995 54.3773 84.1615Z" fill="white"/>
<path d="M55.6568 85.055C55.7089 84.8277 55.5578 84.5772 55.3368 84.5029C55.1157 84.4285 54.8537 84.5275 54.7239 84.721C54.5516 84.9763 54.6365 85.3677 54.8986 85.5294C55.1611 85.6906 55.5882 85.3552 55.6568 85.055Z" fill="black"/>
<path d="M60.2083 85.0933C60.6311 85.2617 61.1552 85.1623 61.4655 84.8298C61.7759 84.4972 61.8323 83.9451 61.5717 83.5725C61.4052 83.3351 61.1258 83.1821 60.8362 83.1686C60.5471 83.1551 60.2547 83.2815 60.0655 83.5006C59.9067 83.6845 59.8227 83.9219 59.7691 84.1594C59.7286 84.3394 59.704 84.5329 59.773 84.7043C59.8478 84.8896 60.0225 85.0194 60.2083 85.0933Z" fill="white"/>
<path d="M60.47 83.8607C60.2654 83.8573 60.0777 84.032 60.054 84.2352C60.0304 84.4384 60.1626 84.6454 60.3523 84.7222C60.6028 84.8235 60.9232 84.6797 61.0144 84.4253C61.1052 84.171 60.7398 83.865 60.47 83.8607Z" fill="black"/>
<path d="M58.9377 90.5313C58.3455 89.9951 58.0733 89.5685 58.136 89.513C58.2079 89.4464 58.568 89.776 59.1877 90.2181C59.8064 90.6602 60.7041 91.2017 61.7644 91.581C62.2924 91.7721 62.8571 91.9256 63.4285 92.0274C64.0004 92.1283 64.5781 92.1877 65.1119 92.1582C65.3797 92.1462 65.6341 92.1032 65.8739 92.0472C65.9912 92.013 66.109 91.984 66.2147 91.9382C66.3247 91.901 66.4246 91.8474 66.5231 91.7987C66.5414 91.7895 66.5583 91.7789 66.5762 91.7688C66.2176 92.0921 65.8016 92.3571 65.3628 92.5588C65.2041 92.6317 65.0419 92.6944 64.8778 92.7533C64.3624 92.7606 63.8397 92.7012 63.3242 92.608C62.7181 92.4975 62.1206 92.3276 61.566 92.1124C60.4521 91.6853 59.5274 91.0651 58.9377 90.5313Z" fill="#683818"/>
<path d="M45.0802 82.402C44.8888 82.3817 44.7042 82.5052 44.6656 82.6939C44.5932 83.0487 44.7512 83.4623 45.0283 83.7176C45.3972 84.0578 45.9108 84.1843 46.4038 84.2799C47.1516 84.4242 47.9207 84.525 48.6741 84.4131C49.428 84.3011 50.1717 83.9531 50.6273 83.3426C50.803 83.1066 50.9323 82.8383 51.1162 82.609C51.3001 82.3793 51.5597 82.1843 51.8537 82.1795C52.1442 82.1746 52.401 82.3523 52.6461 82.5081C52.8913 82.664 53.1794 82.8103 53.4603 82.7369C53.4762 82.7326 53.4912 82.7277 53.5062 82.7215C53.815 82.5955 53.8001 82.138 53.4902 82.0144C53.0313 81.832 52.7103 81.3725 52.4265 80.9507C52.1037 80.4715 51.7007 79.9555 51.1259 79.8918C50.7615 79.8513 50.4 80.0096 50.1066 80.2297C49.8131 80.4493 49.5708 80.7297 49.3044 80.9811C48.1891 82.0328 46.603 82.5612 45.0802 82.402Z" fill="#683818"/>
<path d="M45.2725 82.9713C45.9155 83.3169 46.6917 83.4091 47.419 83.2957C48.2972 83.1586 49.1124 82.7469 49.8465 82.2455C50.1312 82.0505 50.4082 81.8405 50.7191 81.6905C51.0299 81.5404 51.3841 81.4535 51.722 81.5225C52.2644 81.634 53.0168 82.2078 53.7099 82.5013C53.679 82.5954 53.6124 82.6779 53.5062 82.7213C53.4913 82.7276 53.4763 82.7324 53.4604 82.7368C53.1795 82.8101 52.8914 82.6639 52.6462 82.508C52.401 82.3521 52.1443 82.1745 51.8537 82.1793C51.5598 82.1842 51.3001 82.3792 51.1163 82.6089C50.9324 82.8381 50.803 83.1065 50.6274 83.3425C50.5255 83.4791 50.4082 83.6016 50.2808 83.7126C49.707 84.0051 48.914 84.0857 48.3238 84.1258C47.5223 84.1803 46.7247 84.0022 45.9457 83.8063C45.6678 83.7363 45.3815 83.6596 45.1581 83.4805C45.0926 83.4279 45.0342 83.3647 44.9865 83.2942C44.8575 83.1036 45.0698 82.8623 45.2725 82.9713Z" fill="#51270B"/>
<path d="M55.204 83.3012C54.8498 82.6578 54.0602 82.8079 53.8063 83.4392C53.7605 83.5531 53.4405 83.459 53.4815 83.3576C53.8372 82.4739 55.0626 82.486 55.5052 83.2896C55.5795 83.4252 55.2547 83.3933 55.204 83.3012Z" fill="#683818"/>
<path d="M61.051 82.3906C60.6529 81.8477 59.9622 82.1382 59.8078 82.7082C59.7745 82.8322 59.4497 82.7492 59.483 82.6266C59.7214 81.7444 60.8546 81.6889 61.3541 82.3709C61.4473 82.4973 61.1186 82.4828 61.051 82.3906Z" fill="#683818"/>
<path d="M58.022 79.9882C57.6798 79.868 57.2768 79.9385 56.995 80.1678C56.9578 79.8637 56.9212 79.5601 56.884 79.2561C56.8116 79.5094 56.7397 79.7628 56.6673 80.0157C56.4955 79.8733 56.2889 79.772 56.0708 79.7242C56.204 79.8241 56.2894 79.9848 56.2986 80.1513C56.0659 79.9795 55.7247 79.9723 55.4849 80.134C55.7841 80.077 56.1075 80.3039 56.1557 80.6045C56.3801 80.6296 56.6046 80.6547 56.829 80.6798C56.9173 80.6899 57.0143 80.6982 57.0886 80.6489C57.1765 80.5915 57.2016 80.4766 57.2431 80.3801C57.3676 80.0896 57.7151 79.9149 58.022 79.9882Z" fill="#D68F5F"/>
<path d="M62.1601 114.312C62.6466 110.387 62.7113 107.064 62.344 103.794C62.2214 102.704 60.0819 102.867 60.1968 103.821C60.5732 106.957 60.5221 110.091 60.0549 113.913C60.0023 113.908 59.9507 113.901 59.8961 113.902C59.1736 113.914 58.5959 114.4 58.6056 114.987C58.6128 115.428 58.9487 115.801 59.4217 115.954C59.5409 116.448 60.0786 116.816 60.72 116.805C61.1345 116.799 61.4965 116.633 61.7325 116.385C61.7508 116.385 61.7677 116.388 61.7861 116.388C62.5086 116.377 63.0868 115.891 63.0771 115.303C63.0694 114.832 62.6842 114.444 62.1601 114.312Z" fill="#F4AB7A"/>
<path d="M54.3532 114.44C53.7397 110.532 53.5674 107.213 53.8285 103.932C53.9159 102.839 56.0592 102.933 55.9757 103.89C55.7006 107.037 55.8536 110.166 56.4444 113.971C56.4965 113.965 56.5481 113.956 56.6027 113.956C57.3252 113.944 57.9183 114.411 57.928 114.998C57.9352 115.439 57.6109 115.823 57.1437 115.992C57.0404 116.489 56.5148 116.874 55.8734 116.885C55.4588 116.891 55.0916 116.737 54.8478 116.497C54.8295 116.498 54.8126 116.502 54.7943 116.502C54.0718 116.514 53.4786 116.047 53.469 115.46C53.4613 114.989 53.8339 114.588 54.3532 114.44Z" fill="#F4AB7A"/>
<path d="M59.8961 113.902C59.9507 113.901 60.0023 113.908 60.0549 113.913C60.1099 113.462 60.1587 113.022 60.2021 112.59C60.8623 112.791 61.5969 112.735 62.3372 112.717C62.2861 113.238 62.2277 113.769 62.1601 114.312C62.6842 114.444 63.0694 114.832 63.0771 115.303C63.0863 115.891 62.5086 116.377 61.7861 116.388C61.7677 116.388 61.7508 116.385 61.7325 116.385C61.4965 116.633 61.1345 116.799 60.72 116.805C60.0786 116.816 59.5409 116.448 59.4217 115.954C58.9487 115.801 58.6128 115.428 58.6056 114.987C58.5959 114.4 59.1741 113.914 59.8961 113.902Z" fill="#E2CBBC"/>
<path d="M54.3532 114.44C54.2832 113.996 54.22 113.56 54.162 113.13C54.8647 113.099 55.5766 112.861 56.247 112.603C56.3063 113.05 56.372 113.506 56.4444 113.971C56.4965 113.965 56.5481 113.956 56.6027 113.956C57.3252 113.944 57.9183 114.411 57.928 114.998C57.9352 115.439 57.6109 115.823 57.1437 115.992C57.0404 116.489 56.5148 116.874 55.8734 116.885C55.4588 116.891 55.0916 116.737 54.8478 116.497C54.8295 116.498 54.8126 116.502 54.7943 116.502C54.0718 116.514 53.4786 116.047 53.469 115.46C53.4613 114.989 53.8339 114.588 54.3532 114.44Z" fill="#E2CBBC"/>
<path d="M50.2494 20.7861H19.8354V0.00044632H50.2494V20.7861Z" fill="#F28E00"/>
<path d="M49.2117 19.7002H20.8033V1.08632H49.2117V19.7002Z" fill="#A3DADC"/>
<path d="M37.4476 11.8739C34.5527 10.1249 29.1197 7.49124 20.838 7.20745V19.7002H44.7132C42.9156 16.5356 40.5419 13.7441 37.4476 11.8739Z" fill="#036B19"/>
<path d="M35.0076 13.7529H31.5361V9.1371H35.0076V13.7529Z" fill="white"/>
<path d="M35.0076 13.7529H31.5361V12.8856H35.0076V13.7529Z" fill="#5B422F"/>
<path d="M35.4415 9.49609H31.1022L31.6091 7.85132H34.9345L35.4415 9.49609Z" fill="#E73324"/>
<path d="M34.0301 12.042H32.5137V10.0314H34.0301V12.042Z" fill="#69B7B7"/>
<path d="M36.821 12.4652C32.2583 14.0458 27.8869 16.4034 24.3876 19.7002H49.2465V9.63747C45.0271 10.2456 40.8426 11.0713 36.821 12.4652Z" fill="#00821F"/>
<path d="M20.838 12.6529V19.7002H37.4016C34.2885 17.5453 30.6701 16.054 27.1157 14.665C25.0747 13.8677 22.9776 13.0767 20.838 12.6529Z" fill="#1AA838"/>
<path d="M39.1197 10.172C39.1197 9.82309 38.822 9.53979 38.4549 9.53979C38.4453 9.53979 38.4363 9.5422 38.4267 9.54268C38.5166 9.43505 38.5726 9.30041 38.5726 9.15176C38.5726 8.80282 38.2749 8.51952 37.9078 8.51952C37.6019 8.51952 37.3468 8.7174 37.2695 8.98526C37.1758 8.93748 37.0704 8.90755 36.9567 8.90755C36.5897 8.90755 36.292 9.19086 36.292 9.53979C36.292 9.70582 36.3604 9.85494 36.4701 9.96788C36.2479 10.0702 36.0933 10.285 36.0933 10.5354C36.0933 10.8849 36.3909 11.1677 36.758 11.1677C36.758 11.5026 37.0329 11.7739 37.3794 11.7956C37.4927 11.8815 37.6343 11.9346 37.7902 11.9346C38.1574 11.9346 38.4549 11.6518 38.4549 11.3023C38.4549 11.2743 38.4501 11.2483 38.4464 11.2212C38.5251 11.1175 38.5726 10.991 38.5726 10.853C38.5726 10.8327 38.5683 10.8139 38.5664 10.7941C38.8801 10.7435 39.1197 10.4852 39.1197 10.172Z" fill="#1AA838"/>
<path d="M37.6183 13.1299H37.4739C37.3576 13.1299 37.2632 13.0358 37.2632 12.919V9.96291C37.2632 9.84659 37.3576 9.75199 37.4739 9.75199H37.6183C37.7347 9.75199 37.8291 9.84659 37.8291 9.96291V12.919C37.8291 13.0358 37.7347 13.1299 37.6183 13.1299Z" fill="#5B422F"/>
<path d="M43.1189 14.1457C43.1189 13.7967 42.8212 13.5134 42.4542 13.5134C42.4444 13.5134 42.4355 13.5158 42.4259 13.5163C42.5158 13.4082 42.5718 13.2735 42.5718 13.1254C42.5718 12.7764 42.2741 12.4932 41.9071 12.4932C41.6009 12.4932 41.3459 12.691 41.2685 12.9589C41.175 12.9111 41.0697 12.8812 40.9558 12.8812C40.5887 12.8812 40.2912 13.1645 40.2912 13.5134C40.2912 13.679 40.3597 13.8286 40.4692 13.9415C40.2471 14.0438 40.0925 14.2581 40.0925 14.5086C40.0925 14.858 40.39 15.1413 40.7572 15.1413C40.7572 15.4762 41.0322 15.7475 41.3784 15.7692C41.4919 15.8551 41.6334 15.9082 41.7894 15.9082C42.1565 15.9082 42.4542 15.6249 42.4542 15.276C42.4542 15.248 42.4491 15.2214 42.4455 15.1949C42.5241 15.0911 42.5718 14.9647 42.5718 14.8266C42.5718 14.8064 42.5673 14.7871 42.5654 14.7673C42.8793 14.7166 43.1189 14.4589 43.1189 14.1457Z" fill="#1AA838"/>
<path d="M41.6173 17.1045H41.473C41.3565 17.1045 41.2621 17.0099 41.2621 16.8936V13.9375C41.2621 13.8207 41.3565 13.7266 41.473 13.7266H41.6173C41.7338 13.7266 41.8281 13.8207 41.8281 13.9375V16.8936C41.8281 17.0099 41.7338 17.1045 41.6173 17.1045Z" fill="#5B422F"/>
<path d="M27.5447 7.71109C27.5447 7.36167 27.2472 7.07886 26.8799 7.07886C26.8703 7.07886 26.8613 7.08126 26.8518 7.08126C26.9418 6.97363 26.9976 6.83899 26.9976 6.69082C26.9976 6.3414 26.7001 6.05858 26.3328 6.05858C26.0269 6.05858 25.7718 6.25646 25.6945 6.52432C25.6008 6.47654 25.4954 6.44661 25.3817 6.44661C25.0147 6.44661 24.717 6.72992 24.717 7.07886C24.717 7.2444 24.7854 7.394 24.8951 7.50694C24.6729 7.60877 24.5183 7.82354 24.5183 8.07402C24.5183 8.42344 24.816 8.70675 25.183 8.70675C25.183 9.04169 25.4579 9.31292 25.8044 9.33464C25.9177 9.42055 26.0593 9.47363 26.2152 9.47363C26.5824 9.47363 26.8799 9.19034 26.8799 8.8414C26.8799 8.81341 26.8751 8.78686 26.8714 8.76031C26.9501 8.65607 26.9976 8.52962 26.9976 8.39208C26.9976 8.37181 26.9933 8.3525 26.9914 8.33271C27.3053 8.28204 27.5447 8.02431 27.5447 7.71109Z" fill="#1AA838"/>
<path d="M26.0433 10.6699H25.8989C25.7826 10.6699 25.6881 10.5753 25.6881 10.459V7.50246C25.6881 7.38615 25.7826 7.29203 25.8989 7.29203H26.0433C26.1596 7.29203 26.254 7.38615 26.254 7.50246V10.459C26.254 10.5753 26.1596 10.6699 26.0433 10.6699Z" fill="#5B422F"/>
<path d="M31.9218 11.2814C31.9218 10.932 31.6243 10.6492 31.2571 10.6492C31.2475 10.6492 31.2384 10.6516 31.229 10.6516C31.3189 10.544 31.3747 10.4093 31.3747 10.2611C31.3747 9.91172 31.0772 9.62889 30.71 9.62889C30.404 9.62889 30.149 9.82678 30.0716 10.0941C29.978 10.0464 29.8726 10.0169 29.7589 10.0169C29.3918 10.0169 29.0941 10.2997 29.0941 10.6492C29.0941 10.8147 29.1626 10.9643 29.2723 11.0773C29.05 11.1791 28.8956 11.3939 28.8956 11.6448C28.8956 11.9938 29.1931 12.2766 29.5602 12.2766C29.5602 12.612 29.8351 12.8832 30.1815 12.905C30.2949 12.9904 30.4365 13.0439 30.5925 13.0439C30.9596 13.0439 31.2571 12.7607 31.2571 12.4117C31.2571 12.3837 31.2522 12.3572 31.2486 12.3306C31.3272 12.2264 31.3747 12.0999 31.3747 11.9624C31.3747 11.9421 31.3704 11.9228 31.3685 11.903C31.6824 11.8524 31.9218 11.5941 31.9218 11.2814Z" fill="#1AA838"/>
<path d="M30.4204 14.2402H30.2759C30.1596 14.2402 30.0652 14.1456 30.0652 14.0293V11.0733C30.0652 10.9565 30.1596 10.8623 30.2759 10.8623H30.4204C30.5367 10.8623 30.6312 10.9565 30.6312 11.0733V14.0293C30.6312 14.1456 30.5367 14.2402 30.4204 14.2402Z" fill="#5B422F"/>
<path d="M44.3642 6.1808C44.785 6.16198 45.1131 5.84972 45.0969 5.48293C45.0965 5.47327 45.0933 5.46458 45.0923 5.45493C45.2264 5.53891 45.391 5.58766 45.5699 5.57945C45.9907 5.56111 46.3187 5.24886 46.3025 4.88206C46.2889 4.57608 46.0393 4.33187 45.7132 4.26913C45.7667 4.1726 45.7978 4.06594 45.7927 3.95253C45.7765 3.58573 45.4222 3.30339 45.0013 3.32221C44.8016 3.3309 44.6244 3.40715 44.4934 3.52298C44.3603 3.30628 44.0948 3.16343 43.7929 3.17646C43.3719 3.19528 43.0438 3.50754 43.06 3.87433C42.6562 3.89219 42.3412 4.18129 42.3305 4.52878C42.2324 4.64654 42.1745 4.79084 42.1813 4.94672C42.1975 5.31304 42.552 5.59538 42.9727 5.57704C43.0063 5.57559 43.0378 5.56883 43.07 5.564C43.1988 5.63688 43.3532 5.6779 43.5193 5.67066C43.5438 5.66921 43.5668 5.66391 43.5905 5.66101C43.6654 5.97182 43.987 6.19721 44.3642 6.1808Z" fill="#DFF2F1"/>
<path d="M27.1967 1.67271C26.7757 1.69009 26.4465 2.00089 26.4612 2.36769C26.4616 2.37734 26.4648 2.38651 26.4657 2.39568C26.3321 2.31122 26.1675 2.26199 25.9888 2.26923C25.5678 2.28612 25.2386 2.59742 25.2535 2.96422C25.2658 3.26972 25.5144 3.51537 25.8404 3.57908C25.7865 3.67512 25.755 3.78177 25.7595 3.89567C25.7744 4.26247 26.1275 4.54626 26.5485 4.52888C26.7484 4.52116 26.9257 4.44538 27.0573 4.33003C27.1895 4.54721 27.4544 4.69105 27.7566 4.67898C28.1776 4.66209 28.5067 4.35079 28.492 3.984C28.8959 3.96759 29.2118 3.67994 29.224 3.33245C29.3226 3.21517 29.3811 3.07136 29.3747 2.91547C29.36 2.54868 29.0067 2.26489 28.5857 2.28226C28.5523 2.28323 28.5207 2.2895 28.4884 2.29433C28.36 2.22097 28.2057 2.17946 28.0395 2.18622C28.0151 2.18718 27.9922 2.19249 27.9683 2.19539C27.8946 1.88458 27.5739 1.65775 27.1967 1.67271Z" fill="#DFF2F1"/>
<path d="M24.4202 2.85746C24.0685 2.87145 23.7932 3.13159 23.8057 3.43806C23.8061 3.44626 23.8087 3.4535 23.8092 3.46122C23.6977 3.39076 23.5602 3.34974 23.4107 3.35553C23.0589 3.36953 22.7839 3.62966 22.7963 3.93661C22.8067 4.19192 23.0144 4.39703 23.2868 4.4506C23.2418 4.53072 23.2154 4.62001 23.2192 4.71461C23.2316 5.02156 23.5269 5.25853 23.8786 5.24405C24.0455 5.23729 24.1938 5.17406 24.3037 5.07801C24.4142 5.25948 24.6357 5.37966 24.8882 5.36952C25.24 5.35504 25.515 5.09539 25.5028 4.78892C25.8402 4.77493 26.1044 4.53458 26.1145 4.24452C26.1969 4.14607 26.2458 4.02589 26.2405 3.89558C26.2282 3.58912 25.9328 3.35215 25.5812 3.36615C25.5531 3.36759 25.5267 3.3729 25.4997 3.37676C25.3925 3.31499 25.2635 3.28073 25.1248 3.28652C25.1042 3.287 25.085 3.29182 25.0652 3.29424C25.0035 3.0341 24.7355 2.84443 24.4202 2.85746Z" fill="white"/>
<path d="M113.07 69.4252C113.408 69.4391 114.333 69.748 115.686 72.3064C117.415 75.573 119.941 85.4397 119.941 85.4397L112.401 88.248L111.432 86.1884L109.837 70.3324C109.837 70.3324 112.976 69.4206 113.07 69.4252Z" fill="#DD513A"/>
<path d="M103.103 68.003C105.259 68.0053 110.594 68.6348 113.07 69.4251C113.07 69.4251 114.889 85.0601 111.432 96.939C110.658 99.5992 112.072 107.963 112.072 107.963L89.73 107.669C89.73 107.669 92.3768 87.4472 91.3797 84.1807C90.3826 80.9141 90.3588 69.5304 90.3588 69.5304C90.3588 69.5304 90.5118 69.5072 95.3784 68.666C97.6485 68.2738 100.801 67.9995 103.103 68.003Z" fill="#F47458"/>
<path d="M109.995 103.229C109.995 103.229 125.355 102.355 128.785 104.485C132.215 106.614 128.165 110.988 128.165 110.988C128.165 110.988 115.66 116.562 94.725 117.801C89.7675 118.094 89.3402 104.547 90.2673 103.427C91.1943 102.306 109.995 103.229 109.995 103.229Z" fill="#152E35"/>
<path d="M100.499 136.981C100.499 136.981 100.993 142.686 101.902 144.265C102.811 145.846 101.854 148.532 101.807 148.9C101.759 149.269 99.8934 149.795 96.9279 149.479C93.9624 149.163 94.0102 148.478 94.2494 147.373C94.4886 146.267 96.0669 144.845 96.1626 143.792C96.2582 142.739 95.2538 138.947 95.2538 138.947L100.499 136.981Z" fill="#F7A491"/>
<path d="M96.558 149.922C93.5043 149.596 93.8819 148.096 94.1283 146.958C94.2824 146.245 95.1584 145.404 95.6807 144.609C95.9536 144.826 96.3976 145.211 97.7237 145.602C99.1007 146.009 100.988 145.204 102.191 144.699C102.62 146.295 102.64 148.33 102.6 148.639C102.55 149.019 99.6116 150.248 96.558 149.922Z" fill="#184655"/>
<path d="M98.2436 114.289C98.8597 118.951 101.911 142.163 101.911 142.163L94.8317 143.041C94.8317 143.041 86.1265 112.744 86.5729 108.11C87.0193 103.476 90.2779 103.086 90.2779 103.086C90.2779 103.086 96.6126 101.946 98.2436 114.289Z" fill="#1C3F47"/>
<path d="M90.1156 71.2683C92.2045 70.485 93.2264 89.3066 93.508 97.0535C97.2073 97.4099 103.655 97.057 105.261 96.9355C106.016 96.8788 107.757 96.2412 108.508 96.1429C109.277 96.0422 109.975 95.9901 110.353 96.0561C110.492 96.0804 114.348 97.6564 114.678 98.0024C115.087 98.4317 116.193 99.5136 116.006 99.981C115.819 100.449 113.879 98.6781 113.879 98.6781L112.931 98.1459C114.111 99.2983 116.363 100.818 116.038 101.371C115.722 101.91 113.691 100.369 112.244 99.318C113.485 100.439 115.028 102.447 114.672 102.759C114.353 103.04 112.598 100.717 110.723 100.048C110.028 99.8005 109.336 100.487 108.789 100.57C108.388 100.63 107.767 100.761 107.373 100.649L105.343 100.072C104.651 100.135 104.634 100.545 103.936 100.693C103.125 100.866 101.795 101.048 100.762 101.3C94.8161 102.752 92.8329 103.427 91.0126 103.426C85.4983 103.422 85.1786 73.1209 90.1156 71.2683Z" fill="#F7A491"/>
<path d="M86.1512 88.9398C85.7598 81.0043 85.8171 71.2232 90.2655 69.5546C92.0208 68.8962 95.115 72.8559 94.5586 89.1007C92.1838 89.2974 88.6973 89.4547 86.1512 88.9398Z" fill="#DD513A"/>
<path d="M121.2 141.861C121.2 141.861 120.582 143.842 121.688 145.15C122.794 146.46 127.39 147.746 127.993 148.455C128.596 149.165 128.551 149.769 128.551 149.769L115.651 149.413L115.792 145.517L116.386 142.718L121.2 141.861Z" fill="#F7A491"/>
<path d="M122.49 145.805C122.49 145.805 119.176 147.145 117.575 146.351C115.974 145.558 116.022 145.338 115.559 145.634C115.095 145.93 114.93 149.582 114.93 149.582L129.434 150.008C130.444 149.985 130.954 149.242 130.134 148.605C129.572 148.169 128.922 147.876 128.553 147.665C127.418 147.014 122.49 145.805 122.49 145.805Z" fill="#184655"/>
<path d="M120.711 106.909C121.707 104.811 123.975 102.081 127.964 103.725C131.77 105.294 132.791 109.151 131.59 113.1C130.39 117.049 122.486 140.263 122.211 143.454L115.9 143.496C115.9 143.496 117.047 125.115 117.328 120.672C117.599 116.398 118.985 110.541 120.711 106.909Z" fill="#1C3F47"/>
<path d="M130.955 85.5301H109.861C109.302 85.5301 108.8 85.8679 108.588 86.3863L102.093 102.282H90.4634C90.1382 102.282 89.8746 102.545 89.8746 102.872C89.8746 103.198 90.1382 103.462 90.4634 103.462H123.562C124.472 103.462 125.297 102.926 125.67 102.093L132.21 87.4752C132.618 86.5622 131.953 85.5301 130.955 85.5301Z" fill="black"/>
<path d="M119.598 94.7855C119.455 95.4994 118.835 95.9762 118.211 95.8512C117.588 95.7262 117.199 95.0458 117.341 94.3319C117.484 93.618 118.104 93.1412 118.727 93.2662C119.351 93.3912 119.74 94.0716 119.598 94.7855Z" fill="white"/>
<path d="M108.116 48.9068C107.48 48.6928 106.854 48.4509 106.25 48.1594C105.566 47.8307 104.681 47.4443 104.122 47.3586C102.945 47.177 100.922 47.2973 99.8052 48.5088C98.4138 50.0188 95.9415 48.7819 96.4395 56.6873C97.0033 65.6353 101.979 64.6529 102.099 64.5013C102.22 64.3497 106.537 58.7771 106.537 58.7771C106.537 58.7771 108.046 62.0783 108.046 61.9568C108.046 61.8399 115.752 51.4791 108.116 48.9068Z" fill="#0E2E35"/>
<path d="M104.339 65.1621L104.768 68.3592C104.768 68.3592 105.73 72.9657 104.492 73.8544C103.255 74.7419 99.2286 68.2285 99.2286 68.2285L99.6539 60.1264L104.339 65.1621Z" fill="#F7A491"/>
<path d="M99.5165 62.7526C100.539 65.517 102.974 67.2156 104.703 67.874L104.339 65.1629L99.6538 60.1271L99.5165 62.7526Z" fill="#F47458"/>
<path d="M104.084 51.3102C106.707 50.8867 109.06 52.9961 108.994 55.6216C108.966 56.7636 108.872 58.1881 108.635 59.7236C108.065 63.4136 105.547 66.664 103.882 66.3735C102.217 66.0831 98.0272 62.8999 98.7648 57.6477C99.2203 54.4043 101.332 51.7545 104.084 51.3102Z" fill="#F7A491"/>
<path d="M99.9201 58.2745C99.7796 59.0868 99.1295 59.6515 98.4682 59.5357C97.8068 59.42 97.3844 58.6691 97.5249 57.8579C97.6654 57.0456 98.3155 56.481 98.977 56.5967C99.6384 56.7124 100.061 57.4633 99.9201 58.2745Z" fill="#F7A491"/>
<path d="M98.9769 56.5965C98.9769 56.5965 100.99 57.0964 101.737 55.8016C102.484 54.5068 105.156 51.7123 108.551 52.8718C111.947 54.03 105.563 50.0542 105.291 50.0542C105.02 50.0542 101.76 50.0322 101.76 50.0322C101.76 50.0322 99.2469 52.0988 99.1563 52.3267C99.0657 52.5535 98.3412 55.0298 98.3412 55.0298L98.9769 56.5965Z" fill="#0E2E35"/>
<path d="M102.66 61.9989L106.323 62.6989C106.323 62.6989 105.974 64.0782 104.354 63.8179C102.379 63.4985 102.66 61.9989 102.66 61.9989Z" fill="white"/>
</svg>
