<svg width="24" height="30" viewBox="0 0 24 30" fill="none" xmlns="http://www.w3.org/2000/svg">
<path d="M19.7273 13.3636C19.7273 19.0909 12.3636 24 12.3636 24C12.3636 24 5 19.0909 5 13.3636C5 11.4107 5.77581 9.53771 7.15676 8.15676C8.53771 6.77581 10.4107 6 12.3636 6C14.3166 6 16.1896 6.77581 17.5705 8.15676C18.9515 9.53771 19.7273 11.4107 19.7273 13.3636Z" stroke="#E58D8D" stroke-width="1.5" stroke-linecap="round" stroke-linejoin="round"/>
<path d="M12.3635 15.8183C13.7191 15.8183 14.818 14.7193 14.818 13.3637C14.818 12.0081 13.7191 10.9092 12.3635 10.9092C11.0079 10.9092 9.90894 12.0081 9.90894 13.3637C9.90894 14.7193 11.0079 15.8183 12.3635 15.8183Z" stroke="#E58D8D" stroke-width="1.5" stroke-linecap="round" stroke-linejoin="round"/>
</svg>
