<svg width="20" height="20" viewBox="0 0 20 20" fill="none" xmlns="http://www.w3.org/2000/svg">
<path d="M6.37435 3.78718C6.31294 3.84859 6.26634 3.92261 6.22741 4.00375L6.22302 3.99937L0.0734403 17.8524L0.0794715 17.8584C-0.0345721 18.0794 0.156232 18.529 0.54716 18.9204C0.938088 19.3114 1.38768 19.5022 1.60864 19.3881L1.61413 19.3936L15.4671 13.2435L15.4627 13.2385C15.5433 13.2002 15.6174 13.1536 15.6793 13.0911C16.5357 12.2346 15.1469 9.45756 12.5782 6.88829C10.0084 4.31902 7.23132 2.93076 6.37435 3.78718Z" fill="#DD2E44"/>
<path d="M7.12769 6.26074L0.228057 17.5039L0.0734403 17.8521L0.0794714 17.8581C-0.0345721 18.0791 0.156232 18.5287 0.54716 18.9201C0.674362 19.0473 0.806499 19.1438 0.935895 19.2255L9.32084 9.00217L7.12769 6.26074Z" fill="#EA596E"/>
<path d="M12.6171 6.8459C15.1776 9.40749 16.5993 12.138 15.7912 12.945C14.9835 13.7532 12.2531 12.3321 9.69093 9.77155C7.12989 7.20996 5.70873 4.4784 6.51636 3.67077C7.32453 2.86314 10.055 4.2843 12.6171 6.8459Z" fill="#A0041E"/>
<path d="M10.1927 7.14307C10.0836 7.23135 9.94108 7.2774 9.7903 7.26096C9.31439 7.20942 8.91414 7.04383 8.63397 6.7823C8.33735 6.50542 8.19095 6.13368 8.23098 5.76139C8.30116 5.10783 8.95691 4.50801 10.0749 4.62863C10.5097 4.67524 10.7037 4.53542 10.7103 4.46853C10.718 4.40219 10.5585 4.224 10.1237 4.17684C9.64775 4.12531 9.2475 3.95972 8.96678 3.69819C8.67016 3.42131 8.52321 3.04957 8.56379 2.67728C8.63507 2.02372 9.29027 1.4239 10.4071 1.54507C10.724 1.57906 10.8913 1.51382 10.962 1.4716C11.0185 1.43706 11.0409 1.40416 11.0431 1.38497C11.0497 1.31863 10.8924 1.14043 10.4565 1.09328C10.1555 1.06038 9.93724 0.790628 9.97069 0.48907C10.003 0.188061 10.2722 -0.0296089 10.5744 0.00328826C11.6912 0.123363 12.2044 0.848746 12.1337 1.50285C12.0624 2.15751 11.4072 2.75623 10.2892 2.63616C9.97234 2.60162 9.80675 2.66741 9.73548 2.70963C9.679 2.74362 9.65597 2.77707 9.65378 2.79571C9.64665 2.8626 9.80511 3.04025 10.241 3.0874C11.3579 3.20802 11.8711 3.93286 11.8003 4.58696C11.7296 5.24052 11.0744 5.84035 9.95698 5.71917C9.64007 5.68518 9.4734 5.75097 9.40212 5.79264C9.3451 5.82773 9.32316 5.86063 9.32097 5.87927C9.31384 5.94562 9.4723 6.12381 9.90764 6.17096C10.2081 6.20386 10.4269 6.47416 10.3934 6.77517C10.3781 6.9254 10.3019 7.05535 10.1927 7.14307Z" fill="#AA8DD8"/>
<path d="M16.811 12.2132C17.8928 11.9078 18.639 12.3903 18.8166 13.0236C18.9943 13.6563 18.6094 14.4573 17.5281 14.7616C17.106 14.8801 16.9793 15.0818 16.9963 15.146C17.0149 15.2107 17.2293 15.3171 17.6504 15.1981C18.7316 14.8938 19.4778 15.3763 19.6555 16.009C19.8342 16.6423 19.4482 17.4422 18.3665 17.7471C17.9448 17.8655 17.8176 18.0678 17.8363 18.132C17.8544 18.1961 18.0682 18.3025 18.4898 18.184C18.7804 18.1024 19.0842 18.2718 19.1659 18.5629C19.247 18.8546 19.0776 19.1573 18.7859 19.2395C17.7052 19.5438 16.9585 19.0624 16.7797 18.4286C16.6021 17.7959 16.9875 16.9959 18.0698 16.6911C18.492 16.5721 18.6187 16.3709 18.6 16.3062C18.5825 16.242 18.3687 16.1351 17.9476 16.2535C16.8653 16.5584 16.1196 16.077 15.9414 15.4426C15.7632 14.8099 16.1487 14.0099 17.2304 13.7045C17.6515 13.5867 17.7782 13.3838 17.7606 13.3202C17.742 13.2555 17.5287 13.1491 17.1071 13.2676C16.8154 13.3498 16.5133 13.1798 16.431 12.8887C16.3493 12.5981 16.5193 12.2955 16.811 12.2132Z" fill="#77B255"/>
<path d="M12.6111 10.7344C12.4499 10.7344 12.2909 10.6636 12.1824 10.5287C11.9932 10.2919 12.0321 9.94701 12.2679 9.75786C12.3874 9.6619 15.2385 7.4227 19.2679 7.99895C19.5678 8.04172 19.7761 8.31915 19.7334 8.61906C19.6906 8.91843 19.4154 9.12897 19.1127 9.08401C15.5527 8.57849 12.979 10.594 12.9538 10.6143C12.8518 10.6954 12.7312 10.7344 12.6111 10.7344Z" fill="#AA8DD8"/>
<path d="M3.15488 8.45394C3.10279 8.45394 3.0496 8.44626 2.99697 8.43091C2.70693 8.34373 2.54244 8.03833 2.62962 7.74829C3.25083 5.67961 3.81392 2.37837 3.12198 1.51756C3.04467 1.41997 2.92789 1.32402 2.66032 1.34431C2.14603 1.38378 2.19483 2.46884 2.19537 2.47981C2.2184 2.78191 1.99141 3.04509 1.68985 3.06757C1.38336 3.08621 1.12457 2.86361 1.10209 2.5615C1.04562 1.80541 1.28083 0.349166 2.57808 0.251022C3.15707 0.207159 3.63792 0.40838 3.97731 0.830561C5.27729 2.44855 3.95757 7.13914 3.68013 8.06356C3.60886 8.30096 3.39064 8.45394 3.15488 8.45394Z" fill="#77B255"/>
<path d="M13.9814 5.71224C14.4356 5.71224 14.8038 5.34403 14.8038 4.88981C14.8038 4.4356 14.4356 4.06738 13.9814 4.06738C13.5271 4.06738 13.1589 4.4356 13.1589 4.88981C13.1589 5.34403 13.5271 5.71224 13.9814 5.71224Z" fill="#5C913B"/>
<path d="M1.09657 10.6472C1.70219 10.6472 2.19315 10.1563 2.19315 9.55067C2.19315 8.94505 1.70219 8.4541 1.09657 8.4541C0.490952 8.4541 0 8.94505 0 9.55067C0 10.1563 0.490952 10.6472 1.09657 10.6472Z" fill="#9266CC"/>
<path d="M17.8193 11.1956C18.2735 11.1956 18.6417 10.8274 18.6417 10.3732C18.6417 9.919 18.2735 9.55078 17.8193 9.55078C17.365 9.55078 16.9968 9.919 16.9968 10.3732C16.9968 10.8274 17.365 11.1956 17.8193 11.1956Z" fill="#5C913B"/>
<path d="M12.8847 17.7747C13.3389 17.7747 13.7071 17.4065 13.7071 16.9523C13.7071 16.4981 13.3389 16.1299 12.8847 16.1299C12.4305 16.1299 12.0623 16.4981 12.0623 16.9523C12.0623 17.4065 12.4305 17.7747 12.8847 17.7747Z" fill="#5C913B"/>
<path d="M15.3521 2.97147C15.9577 2.97147 16.4486 2.48051 16.4486 1.87489C16.4486 1.26927 15.9577 0.77832 15.3521 0.77832C14.7464 0.77832 14.2555 1.26927 14.2555 1.87489C14.2555 2.48051 14.7464 2.97147 15.3521 2.97147Z" fill="#FFCC4D"/>
<path d="M17.8193 5.16439C18.2735 5.16439 18.6417 4.79618 18.6417 4.34196C18.6417 3.88775 18.2735 3.51953 17.8193 3.51953C17.365 3.51953 16.9968 3.88775 16.9968 4.34196C16.9968 4.79618 17.365 5.16439 17.8193 5.16439Z" fill="#FFCC4D"/>
<path d="M16.1745 7.35775C16.6287 7.35775 16.9969 6.98954 16.9969 6.53532C16.9969 6.0811 16.6287 5.71289 16.1745 5.71289C15.7203 5.71289 15.3521 6.0811 15.3521 6.53532C15.3521 6.98954 15.7203 7.35775 16.1745 7.35775Z" fill="#FFCC4D"/>
<path d="M4.1121 13.389C4.56632 13.389 4.93453 13.0208 4.93453 12.5666C4.93453 12.1124 4.56632 11.7441 4.1121 11.7441C3.65789 11.7441 3.28967 12.1124 3.28967 12.5666C3.28967 13.0208 3.65789 13.389 4.1121 13.389Z" fill="#FFCC4D"/>
</svg>
