<svg width="140" height="140" viewBox="0 0 140 140" fill="none" xmlns="http://www.w3.org/2000/svg">
<path d="M140 70C140.012 79.4758 138.094 88.8549 134.363 97.565L134.131 98.0994C127.818 112.46 116.873 124.288 103.045 131.694C89.217 139.1 73.3049 141.654 57.8535 138.95C57.4331 138.875 57.0134 138.798 56.5944 138.718C52.2646 137.879 48.0247 136.628 43.9322 134.984C43.2675 134.717 42.6075 134.44 41.9524 134.154C41.505 133.959 41.0577 133.758 40.6145 133.551C28.4907 127.932 18.2259 118.964 11.03 107.704C3.83416 96.4447 0.00711734 83.3626 0 70C0 31.3405 31.3405 0 70 0C108.659 0 140 31.3405 140 70Z" fill="#065CC1"/>
<path opacity="0.2" d="M57.8537 138.95C57.4333 138.876 57.0136 138.799 56.5945 138.718C56.3212 130.784 55.383 114.5 52.1833 97.4454C50.4333 88.1114 48.004 78.5433 44.6345 69.9901C43.4801 67.0305 42.1616 64.1377 40.6851 61.325C37.2803 54.8945 33.1508 49.4809 28.1431 45.8131L28.8803 44.8066C33.0451 47.8593 36.7881 52.1449 40.1093 57.6634C41.1055 59.3161 42.0623 61.0792 42.9798 62.9528C43.9635 64.9575 44.9017 67.0858 45.7943 69.3377C46.3638 70.7708 46.914 72.2537 47.4449 73.7862C49.7561 80.4404 51.7208 88.0327 53.3389 96.5631C53.6972 98.4478 54.0383 100.379 54.362 102.356C56.87 117.675 57.6259 131.839 57.8537 138.95Z" fill="black"/>
<path opacity="0.2" d="M41.9522 134.154C41.5049 133.959 41.0576 133.758 40.6144 133.551C40.1815 128.85 39.3863 123.018 37.9324 117.482C37.2957 114.996 36.4782 112.56 35.4866 110.192C33.8277 106.309 31.68 103.008 28.9028 100.972L29.6401 99.9678C32.5478 102.097 34.7907 105.462 36.5241 109.399C38.4771 113.835 39.7797 118.998 40.6475 123.931C41.2916 127.595 41.6975 131.134 41.9522 134.154Z" fill="black"/>
<path opacity="0.2" d="M21.1786 45.784C24.6201 45.784 27.41 42.9941 27.41 39.5527C27.41 36.1112 24.6201 33.3213 21.1786 33.3213C17.7371 33.3213 14.9473 36.1112 14.9473 39.5527C14.9473 42.9941 17.7371 45.784 21.1786 45.784Z" fill="black"/>
<path opacity="0.2" d="M23.1855 99.4246C26.6269 99.4246 29.4168 96.6348 29.4168 93.1933C29.4168 89.7518 26.6269 86.9619 23.1855 86.9619C19.744 86.9619 16.9541 89.7518 16.9541 93.1933C16.9541 96.6348 19.744 99.4246 23.1855 99.4246Z" fill="black"/>
<path opacity="0.2" d="M45.9172 50.0192C44.5958 57.4743 47.5129 64.2247 47.5129 64.2247C47.5129 64.2247 52.5723 58.8881 53.8937 51.433C55.2151 43.978 52.298 37.2275 52.298 37.2275C52.298 37.2275 47.2386 42.5642 45.9172 50.0192Z" fill="black"/>
<path opacity="0.2" d="M25.2077 67.7157C32.3185 70.3159 39.4638 68.6473 39.4638 68.6473C39.4638 68.6473 35.0803 62.763 27.9695 60.1628C20.8587 57.5626 13.7134 59.2313 13.7134 59.2313C13.7134 59.2313 18.0969 65.1156 25.2077 67.7157Z" fill="black"/>
<path opacity="0.2" d="M24.0021 115.216C28.9862 117.039 34.0016 115.85 34.0016 115.85C34.0016 115.85 30.9362 111.706 25.9521 109.884C20.968 108.061 15.9526 109.25 15.9526 109.25C15.9526 109.25 19.0181 113.394 24.0021 115.216Z" fill="black"/>
<path d="M69.8561 85.5012C84.9277 85.5012 97.1457 73.2832 97.1457 58.2116C97.1457 43.1399 84.9277 30.9219 69.8561 30.9219C54.7844 30.9219 42.5664 43.1399 42.5664 58.2116C42.5664 73.2832 54.7844 85.5012 69.8561 85.5012Z" fill="#D0CDE1"/>
<path d="M59.1963 79.1052C59.1963 79.1052 62.6075 95.3084 62.6075 97.014C62.6075 98.7196 78.8107 106.395 78.8107 106.395L93.3084 103.836L98.4252 88.486C98.4252 88.486 89.8972 75.694 89.8972 70.5771L59.1963 79.1052Z" fill="#D0CDE1"/>
<path d="M134.363 97.5649L134.131 98.0992C127.819 112.459 116.873 124.288 103.045 131.694C89.2172 139.099 73.3052 141.654 57.8538 138.95C57.4334 138.875 57.0136 138.798 56.5946 138.718C52.2648 137.878 48.0249 136.628 43.9325 134.984C43.2677 134.717 42.6077 134.44 41.9526 134.153C41.5053 133.959 41.0579 133.758 40.6147 133.551C36.5976 131.69 32.7662 129.451 29.1724 126.865L25.9375 117.482L27.7558 116.094L31.4961 113.238L35.4869 110.192L36.5245 109.399L52.1834 97.4448L53.339 96.5626L61.478 90.3496L61.4801 90.3475C61.4801 90.3475 70.2819 104.689 83.0745 100.425C95.8671 96.1608 95.5875 83.9336 95.5875 83.9336L134.363 97.5649Z" fill="#2F2E41"/>
<path d="M46.1906 36.2254C46.1906 36.2254 54.855 17.4526 71.4617 21.7848C88.0684 26.117 97.4548 32.6153 98.1768 39.1135C98.8989 45.6118 97.8158 55.3592 97.8158 55.3592C97.8158 55.3592 96.0107 42.0017 84.4582 44.8898C72.9057 47.7779 54.855 45.6118 54.855 45.6118L51.9668 71.6049C51.9668 71.6049 48.7177 66.9117 45.1075 69.7999C41.4974 72.688 34.6381 42.0017 46.1906 36.2254Z" fill="#2F2E41"/>
<path d="M43.9323 134.984C43.2675 134.717 42.6075 134.441 41.9524 134.154C41.5051 133.959 41.0577 133.758 40.6145 133.551C33.9706 130.47 27.8498 126.369 22.4746 121.395C24.3779 118.802 25.9373 117.482 25.9373 117.482H38.7299L40.6477 123.932L43.9323 134.984Z" fill="#2F2E41"/>
<path d="M123.157 96.1611L134.131 98.0996C131.194 104.79 127.228 110.979 122.376 116.443L123.157 96.1611Z" fill="#2F2E41"/>
</svg>
