<svg width="140" height="140" viewBox="0 0 140 140" fill="none" xmlns="http://www.w3.org/2000/svg">
<path d="M140 70C140.011 78.9924 138.285 87.9022 134.916 96.2396C134.907 96.2583 134.901 96.2749 134.893 96.2935V96.2956C132.629 101.878 129.65 107.144 126.031 111.961C125.333 112.893 124.613 113.805 123.871 114.699C123.6 115.026 123.324 115.351 123.049 115.672C121.63 117.318 120.138 118.896 118.571 120.404C118.207 120.756 117.838 121.104 117.465 121.448C117.378 121.529 117.291 121.607 117.205 121.688C115.38 123.355 113.469 124.925 111.478 126.389C110.142 127.377 108.771 128.315 107.365 129.204C107.057 129.401 106.746 129.594 106.433 129.784C105.891 130.115 105.343 130.439 104.791 130.755C104.07 131.169 103.341 131.57 102.602 131.958C102.304 132.118 102.003 132.271 101.703 132.424C101.264 132.65 100.823 132.867 100.378 133.081C100.301 133.118 100.224 133.155 100.148 133.191C99.8578 133.331 99.5637 133.468 99.2696 133.605C95.4396 135.371 91.4564 136.785 87.3696 137.828C87.3468 137.834 87.3261 137.838 87.3033 137.844C87.0362 137.912 86.7669 137.979 86.4977 138.043C86.2968 138.093 86.0939 138.14 85.8909 138.186C85.8659 138.194 85.8403 138.2 85.8143 138.204C85.398 138.302 84.9817 138.395 84.5613 138.48C84.3252 138.53 84.0891 138.579 83.853 138.627C83.7101 138.658 83.5652 138.685 83.4223 138.712C83.2421 138.747 83.064 138.78 82.8838 138.815C82.7844 138.836 82.685 138.853 82.5835 138.869C82.3557 138.911 82.1279 138.952 81.9022 138.991C81.5169 139.058 81.1276 139.122 80.7403 139.18C80.4587 139.223 80.1791 139.265 79.8974 139.304C79.5661 139.352 79.2347 139.395 78.9013 139.437C78.8101 139.451 78.719 139.462 78.6279 139.472C78.5099 139.486 78.3918 139.501 78.2738 139.515C78.0356 139.544 77.7974 139.571 77.5572 139.596C77.4329 139.611 77.3107 139.623 77.1865 139.635C76.9504 139.66 76.7143 139.683 76.4782 139.704C76.1738 139.733 75.8693 139.758 75.5628 139.783C75.19 139.812 74.8193 139.838 74.4445 139.861C74.2042 139.876 73.964 139.89 73.7217 139.903C73.1045 139.936 72.4874 139.959 71.8661 139.975C71.5575 139.983 71.2468 139.99 70.9362 139.994H70.93C70.6214 139.998 70.3107 140 70.0001 140C66.852 140.001 63.7073 139.791 60.5874 139.37C58.2989 139.064 56.047 138.648 53.8317 138.124C53.7427 138.103 53.6536 138.082 53.5667 138.059C53.343 138.008 53.1214 137.952 52.8998 137.896C52.703 137.846 52.5084 137.794 52.3116 137.743C47.2411 136.423 42.3361 134.534 37.6903 132.112C37.6675 132.099 37.6427 132.087 37.6199 132.074C37.4853 132.004 37.3528 131.936 37.2202 131.863C36.9282 131.71 36.6376 131.554 36.3483 131.395C34.7019 130.49 33.0975 129.522 31.5353 128.491C31.1335 128.228 30.7359 127.961 30.3424 127.69C30.2161 127.603 30.0918 127.516 29.9675 127.429C29.8371 127.338 29.7066 127.247 29.5782 127.156C29.2365 126.913 28.8968 126.668 28.5593 126.42C27.1613 125.393 25.8048 124.316 24.4897 123.188C19.8284 119.196 15.7094 114.611 12.2377 109.55C11.0261 107.785 9.89536 105.964 8.84536 104.087C3.02646 93.6694 -0.019265 81.9322 9.16904e-05 70C9.16904e-05 31.3405 31.3406 0 70.0001 0C108.66 0 140 31.3405 140 70Z" fill="#D0CDE1"/>
<path opacity="0.2" d="M81.2559 138.059C81.4795 138.007 81.7011 137.951 81.9227 137.895C82.1195 137.846 82.3141 137.794 82.5109 137.742C82.5212 137.33 82.5358 136.876 82.5502 136.386C82.6724 132.542 82.9603 126.354 83.6396 118.898C83.6769 118.498 83.7142 118.096 83.7514 117.691C83.9937 115.164 84.2775 112.507 84.6171 109.752C84.6275 109.661 84.6399 109.572 84.6502 109.481C84.9257 107.249 85.2384 104.956 85.5905 102.62C85.8369 100.986 86.1034 99.3339 86.3899 97.664C86.4106 97.548 86.4313 97.43 86.452 97.314C86.5349 96.8315 86.6198 96.351 86.7067 95.8664C86.9491 94.5182 87.2079 93.1616 87.4792 91.8051C88.434 87.0335 89.571 82.2329 90.9275 77.5628C92.3054 72.7195 94.0025 67.9727 96.0076 63.3537C97.5628 59.7654 99.4152 56.3134 101.546 53.0338C101.577 52.9862 101.608 52.9406 101.639 52.893C104.362 48.7903 107.475 45.309 111.029 42.7057L110.291 41.6992C106.887 44.1948 103.764 47.5153 100.922 51.6608C100.908 51.6815 100.895 51.7001 100.881 51.7208C98.744 54.8893 96.879 58.2328 95.3056 61.7155C93.1987 66.374 91.4216 71.1746 89.9872 76.0821C88.6286 80.6424 87.4102 85.5831 86.3319 90.9042C85.9529 92.7785 85.5912 94.699 85.2467 96.6658C85.1887 97.0013 85.1307 97.3368 85.0727 97.6744C85.0727 97.6785 85.0707 97.6847 85.0707 97.6889C84.9816 98.2066 84.8967 98.7244 84.8097 99.2483C84.5943 100.568 84.3914 101.876 84.2008 103.175C83.9068 105.176 83.641 107.142 83.4035 109.073C83.3248 109.711 83.2489 110.344 83.1757 110.972C83.0721 111.859 82.9741 112.733 82.8816 113.596C82.7511 114.797 82.6317 115.973 82.5233 117.123L82.4923 117.44C82.4757 117.622 82.4591 117.805 82.4426 117.985C81.6017 127.054 81.3387 134.379 81.2559 138.059Z" fill="black"/>
<path opacity="0.2" d="M97.1323 132.112C97.1551 132.099 97.18 132.087 97.2027 132.075C97.6294 131.853 98.0518 131.627 98.4743 131.395C98.6131 129.743 98.7995 127.926 99.0439 126.017C99.0956 125.623 99.1474 125.224 99.2054 124.822C99.2344 124.607 99.2655 124.389 99.2965 124.17C99.5409 122.488 99.8308 120.752 100.179 119.009C101.593 111.893 103.942 104.619 107.841 100.129C108.051 99.8871 108.264 99.6551 108.486 99.4294C109.035 98.8587 109.631 98.3356 110.269 97.8658L109.531 96.8613C108.642 97.5195 107.823 98.2684 107.088 99.0959C106.829 99.3838 106.576 99.6834 106.33 99.9948C102.741 104.512 100.5 111.199 99.1039 117.82C98.7394 119.547 98.4329 121.272 98.172 122.952C98.1057 123.391 98.0422 123.826 97.9815 124.257C97.5776 127.102 97.3104 129.79 97.1323 132.112Z" fill="black"/>
<path opacity="0.2" d="M117.993 42.6776C121.435 42.6776 124.224 39.8877 124.224 36.4462C124.224 33.0047 121.435 30.2148 117.993 30.2148C114.552 30.2148 111.762 33.0047 111.762 36.4462C111.762 39.8877 114.552 42.6776 117.993 42.6776Z" fill="black"/>
<path opacity="0.2" d="M115.986 96.3182C119.428 96.3182 122.218 93.5283 122.218 90.0868C122.218 86.6453 119.428 83.8555 115.986 83.8555C112.545 83.8555 109.755 86.6453 109.755 90.0868C109.755 93.5283 112.545 96.3182 115.986 96.3182Z" fill="black"/>
<path opacity="0.2" d="M93.2545 46.9128C94.576 54.3678 91.6589 61.1183 91.6589 61.1183C91.6589 61.1183 86.5995 55.7817 85.2781 48.3266C83.9567 40.8715 86.8737 34.1211 86.8737 34.1211C86.8737 34.1211 91.9331 39.4577 93.2545 46.9128Z" fill="black"/>
<path opacity="0.2" d="M113.964 64.6093C106.853 67.2094 99.708 65.5408 99.708 65.5408C99.708 65.5408 104.092 59.6565 111.202 57.0564C118.313 54.4562 125.458 56.1248 125.458 56.1248C125.458 56.1248 121.075 62.0091 113.964 64.6093Z" fill="black"/>
<path opacity="0.2" d="M115.17 112.11C110.186 113.932 105.17 112.744 105.17 112.744C105.17 112.744 108.236 108.6 113.22 106.777C118.204 104.955 123.219 106.144 123.219 106.144C123.219 106.144 120.154 110.287 115.17 112.11Z" fill="black"/>
<path d="M91.1162 111.062L91.3689 111.192C91.344 111.461 91.284 111.627 91.1162 111.062Z" fill="#2F2E41"/>
<path d="M91.4494 111.149C91.4515 111.178 91.4556 111.209 91.4577 111.238L91.3687 111.192C91.3707 111.165 91.3728 111.136 91.3769 111.107C91.3977 110.745 91.3728 110.316 91.4494 111.149Z" fill="#2F2E41"/>
<path d="M64.5498 101.241C83.3318 101.241 98.5576 86.0153 98.5576 67.2334C98.5576 48.4514 83.3318 33.2256 64.5498 33.2256C45.7678 33.2256 30.542 48.4514 30.542 67.2334C30.542 86.0153 45.7678 101.241 64.5498 101.241Z" fill="#2F2E41"/>
<path d="M67.3494 99.855C78.7237 99.855 87.9444 90.6343 87.9444 79.26C87.9444 67.8857 78.7237 58.665 67.3494 58.665C55.9751 58.665 46.7544 67.8857 46.7544 79.26C46.7544 90.6343 55.9751 99.855 67.3494 99.855Z" fill="#D0CDE1"/>
<path d="M114.376 118.733L114.351 118.739L109.561 119.889L99.5868 122.283L98.2261 122.61L83.0581 126.249L81.7699 126.559L44.9702 135.39C42.4825 134.438 40.0519 133.344 37.6906 132.112C37.6679 132.099 37.643 132.087 37.6202 132.074C37.4856 132.004 37.3531 131.936 37.2205 131.863C36.9285 131.71 36.6379 131.554 36.3486 131.395C34.7022 130.49 33.0978 129.522 31.5356 128.491C31.1338 128.228 30.7362 127.961 30.3427 127.69C30.2164 127.603 30.0921 127.516 29.9679 127.429C29.8374 127.338 29.7069 127.247 29.5785 127.156C29.2368 126.913 28.8971 126.668 28.5596 126.42C32.1341 119.924 40.646 115.606 49.1578 113.243C55.5821 111.457 56.9945 105.59 56.8723 100.369C56.8412 99.1784 56.7403 97.9904 56.5699 96.8113C56.3104 94.9348 55.8976 93.0826 55.3356 91.2734L75.9318 91.961L78.0566 96.8569C77.9985 97.3946 77.9798 97.9359 78.0007 98.4764C78.1622 102.492 80.6412 105.089 83.7001 106.765C84.0977 106.982 84.5057 107.185 84.9199 107.373C89.9359 109.654 95.8403 109.809 95.8403 109.809C97.6383 109.61 99.4544 109.644 101.244 109.91C101.679 109.977 102.101 110.056 102.511 110.149C104.905 110.684 107.167 111.696 109.161 113.125C109.923 113.666 110.643 114.264 111.317 114.912C112.514 116.033 113.544 117.319 114.376 118.733Z" fill="#D0CDE1"/>
<path d="M117.465 121.448C117.378 121.528 117.291 121.607 117.204 121.688C115.38 123.355 113.468 124.924 111.478 126.389C110.142 127.377 108.771 128.315 107.365 129.203C107.056 129.4 106.746 129.593 106.433 129.783C105.89 130.115 105.343 130.438 104.791 130.755C104.07 131.169 103.34 131.57 102.602 131.958C102.303 132.117 102.003 132.271 101.703 132.424C101.264 132.65 100.823 132.867 100.377 133.08C100.301 133.118 100.224 133.155 100.148 133.19L99.2715 132.463L109.56 119.888L111.629 117.359C111.629 117.359 112.456 117.359 114.35 118.739C115.398 119.518 116.388 120.372 117.312 121.294C117.362 121.346 117.413 121.396 117.465 121.448Z" fill="#D0CDE1"/>
<path d="M117.321 121.307C117.293 121.437 117.254 121.564 117.205 121.688C115.38 123.355 113.469 124.924 111.478 126.389C109.751 127.011 107.96 127.437 106.137 127.658C106.137 127.658 106.292 128.437 106.433 129.783C105.891 130.115 105.343 130.438 104.791 130.755C104.07 131.169 103.341 131.57 102.602 131.958C102.304 132.117 102.003 132.271 101.703 132.424C101.264 132.65 100.823 132.867 100.378 133.08C100.301 133.118 100.224 133.155 100.148 133.19C99.8578 133.331 99.5637 133.468 99.2696 133.604C95.4396 135.371 91.4564 136.784 87.3696 137.827C87.3468 137.833 87.3261 137.837 87.3034 137.844C87.0362 137.912 86.767 137.978 86.4977 138.042C86.2968 138.092 86.0939 138.14 85.8909 138.185C85.8659 138.194 85.8403 138.2 85.8143 138.204C85.398 138.301 84.9818 138.395 84.5613 138.479C84.3252 138.529 84.0892 138.579 83.8531 138.626C83.7102 138.658 83.5652 138.684 83.4223 138.711C83.2421 138.747 83.064 138.78 82.8838 138.815C82.7844 138.836 82.685 138.852 82.5835 138.869C82.3557 138.91 82.1279 138.952 81.9022 138.991C81.517 139.057 81.1276 139.121 80.7403 139.179C80.4587 139.223 80.1791 139.264 79.8974 139.304C79.5661 139.351 79.2347 139.395 78.9013 139.436C78.8102 139.451 78.719 139.461 78.6279 139.471C78.5099 139.486 78.3918 139.5 78.2738 139.515C78.0356 139.544 77.7974 139.571 77.5572 139.596C77.4329 139.61 77.3108 139.623 77.1865 139.635C76.9504 139.66 76.7143 139.683 76.4782 139.703C76.1738 139.732 75.8693 139.757 75.5628 139.782C75.19 139.811 74.8193 139.838 74.4445 139.861C74.2042 139.875 73.964 139.89 73.7217 139.902C73.1045 139.935 72.4874 139.958 71.8661 139.975C71.5575 139.983 71.2468 139.989 70.9362 139.993H70.93C70.6214 139.997 70.3107 140 70.0001 140C66.852 140.001 63.7073 139.791 60.5874 139.37C58.2989 139.063 56.047 138.648 53.8318 138.123C53.7427 138.103 53.6537 138.082 53.5667 138.059C53.343 138.007 53.1214 137.951 52.8998 137.895C52.7031 137.846 52.5084 137.794 52.3116 137.742C47.2411 136.423 42.3361 134.534 37.6903 132.111C37.6675 132.099 37.6427 132.086 37.6199 132.074C37.4853 132.003 37.3528 131.935 37.2202 131.863C48.588 129.214 66.5519 125.037 82.1403 121.458C82.5773 121.358 83.0115 121.259 83.443 121.16C89.2004 119.838 94.5933 118.608 99.1557 117.579C99.6279 117.473 100.09 117.37 100.543 117.268C105.445 116.166 109.252 115.33 111.317 114.911C111.873 114.784 112.436 114.685 113.002 114.615L117.312 121.294L117.321 121.307Z" fill="#2F2E41"/>
<path d="M33.4366 52.7619C39.0313 52.7619 43.5666 48.2266 43.5666 42.6319C43.5666 37.0373 39.0313 32.502 33.4366 32.502C27.842 32.502 23.3066 37.0373 23.3066 42.6319C23.3066 48.2266 27.842 52.7619 33.4366 52.7619Z" fill="#2F2E41"/>
<path d="M95.6632 49.8674C101.258 49.8674 105.793 45.332 105.793 39.7374C105.793 34.1428 101.258 29.6074 95.6632 29.6074C90.0685 29.6074 85.5332 34.1428 85.5332 39.7374C85.5332 45.332 90.0685 49.8674 95.6632 49.8674Z" fill="#2F2E41"/>
<path d="M84.8098 35.3966C84.8102 32.8981 85.7339 30.4879 87.4033 28.6292C89.0728 26.7704 91.3704 25.5941 93.8545 25.3265C92.4398 25.172 91.0084 25.3173 89.6537 25.7529C88.2989 26.1885 87.0511 26.9047 85.9916 27.8547C84.9321 28.8048 84.0846 29.9675 83.5045 31.2669C82.9244 32.5664 82.6245 33.9735 82.6245 35.3966C82.6245 36.8197 82.9244 38.2268 83.5045 39.5263C84.0846 40.8257 84.9321 41.9884 85.9916 42.9385C87.0511 43.8885 88.2989 44.6047 89.6537 45.0403C91.0084 45.4759 92.4398 45.6212 93.8545 45.4667C91.3704 45.199 89.0728 44.0228 87.4033 42.164C85.7339 40.3053 84.8102 37.8951 84.8098 35.3966V35.3966Z" fill="#2F2E41"/>
<path d="M22.1174 50.8255C20.369 49.0407 19.342 46.6727 19.2336 44.1766C19.1252 41.6805 19.9431 39.2324 21.5301 37.3027C20.4115 38.1824 19.4908 39.2879 18.828 40.5472C18.1651 41.8065 17.7751 43.1914 17.6832 44.6115C17.5914 46.0316 17.7998 47.4551 18.2948 48.7893C18.7899 50.1235 19.5605 51.3385 20.5564 52.355C21.5524 53.3714 22.7514 54.1667 24.0752 54.6888C25.399 55.211 26.818 55.4484 28.2397 55.3855C29.6614 55.3226 31.0539 54.9609 32.3265 54.3239C33.599 53.6869 34.7231 52.7889 35.6254 51.6885C33.6638 53.2358 31.1995 54.0036 28.7061 53.8443C26.2127 53.685 23.8662 52.6099 22.1174 50.8255V50.8255Z" fill="#2F2E41"/>
<path d="M64.5499 51.3145C52.5614 51.3145 42.8428 56.9836 42.8428 63.9769C42.8428 67.106 44.7963 69.9658 48.0209 72.1751L52.1998 69.1472L51.0634 73.8908C51.5349 74.1093 52.0164 74.3208 52.5185 74.5162L58.7613 67.233V76.1805C60.6755 76.4872 62.6112 76.6406 64.5499 76.6394C76.5383 76.6394 86.2569 70.9702 86.2569 63.9769C86.2569 56.9836 76.5383 51.3145 64.5499 51.3145Z" fill="#2F2E41"/>
<path d="M85.5334 39.7373C85.5334 39.7373 83.9601 46.973 93.7914 49.8673L85.5334 39.7373Z" fill="#2F2E41"/>
<path d="M42.8426 41.0547C42.8426 41.0547 46.4605 49.1441 35.6069 52.762L42.8426 41.0547Z" fill="#2F2E41"/>
<path d="M48.208 87.3453C49.1208 87.0898 49.3636 85.1068 48.7503 82.9162C48.137 80.7255 46.8999 79.1568 45.9872 79.4123C45.0744 79.6679 44.8316 81.6509 45.4449 83.8415C46.0581 86.0321 47.2952 87.6009 48.208 87.3453Z" fill="#D0CDE1"/>
<path d="M90.0005 80.0519C90.1403 77.7814 89.4867 75.8935 88.5407 75.8352C87.5946 75.777 86.7143 77.5704 86.5745 79.8409C86.4346 82.1115 87.0882 83.9994 88.0343 84.0576C88.9804 84.1159 89.8607 82.3225 90.0005 80.0519Z" fill="#D0CDE1"/>
</svg>
