<svg width="140" height="142" viewBox="0 0 140 142" fill="none" xmlns="http://www.w3.org/2000/svg">
<path d="M140 70C140.011 78.9924 138.285 87.9022 134.916 96.2396C134.907 96.2583 134.901 96.2749 134.893 96.2935V96.2956C132.629 101.878 129.65 107.144 126.031 111.961C125.333 112.893 124.613 113.805 123.871 114.699C123.6 115.026 123.324 115.351 123.049 115.672C121.63 117.318 120.138 118.896 118.571 120.404C118.207 120.756 117.838 121.104 117.465 121.448C117.378 121.529 117.291 121.607 117.205 121.688C115.38 123.355 113.469 124.925 111.478 126.389C110.142 127.377 108.771 128.315 107.365 129.204C107.057 129.401 106.746 129.594 106.433 129.784C105.891 130.115 105.343 130.439 104.791 130.755C104.07 131.169 103.341 131.57 102.602 131.958C102.304 132.118 102.003 132.271 101.703 132.424C101.264 132.65 100.823 132.867 100.378 133.081C100.301 133.118 100.224 133.155 100.148 133.191C99.8578 133.331 99.5637 133.468 99.2696 133.605C95.4396 135.371 91.4564 136.785 87.3696 137.828C87.3468 137.834 87.3261 137.838 87.3033 137.844C87.0362 137.912 86.7669 137.979 86.4977 138.043C86.2968 138.093 86.0939 138.14 85.8909 138.186C85.8659 138.194 85.8403 138.2 85.8143 138.204C85.398 138.302 84.9817 138.395 84.5613 138.48C84.3252 138.53 84.0891 138.579 83.8531 138.627C83.7102 138.658 83.5652 138.685 83.4223 138.712C83.2421 138.747 83.064 138.78 82.8838 138.815C82.7844 138.836 82.685 138.853 82.5835 138.869C82.3557 138.911 82.1279 138.952 81.9022 138.991C81.5169 139.058 81.1276 139.122 80.7403 139.18C80.4587 139.223 80.1791 139.265 79.8974 139.304C79.5661 139.352 79.2347 139.395 78.9013 139.437C78.8101 139.451 78.719 139.462 78.6279 139.472C78.5099 139.486 78.3918 139.501 78.2738 139.515C78.0356 139.544 77.7974 139.571 77.5572 139.596C77.4329 139.611 77.3107 139.623 77.1865 139.635C76.9504 139.66 76.7143 139.683 76.4782 139.704C76.1738 139.733 75.8693 139.758 75.5628 139.783C75.19 139.812 74.8193 139.838 74.4445 139.861C74.2042 139.876 73.964 139.89 73.7217 139.903C73.1045 139.936 72.4874 139.959 71.8661 139.975C71.5575 139.983 71.2468 139.99 70.9362 139.994H70.93C70.6214 139.998 70.3107 140 70.0001 140C66.8519 140.001 63.7073 139.791 60.5874 139.37C58.2989 139.064 56.047 138.648 53.8317 138.124C53.7427 138.103 53.6536 138.082 53.5667 138.059C53.343 138.008 53.1214 137.952 52.8998 137.896C52.703 137.846 52.5084 137.794 52.3116 137.743C47.2411 136.423 42.3361 134.534 37.6903 132.112C37.6675 132.099 37.6427 132.087 37.6199 132.074C37.4853 132.004 37.3528 131.936 37.2202 131.863C36.9282 131.71 36.6376 131.554 36.3483 131.395C34.7019 130.49 33.0975 129.522 31.5353 128.491C31.1335 128.228 30.7359 127.961 30.3424 127.69C30.2161 127.603 30.0918 127.516 29.9675 127.429C29.8371 127.338 29.7066 127.247 29.5782 127.156C29.2365 126.913 28.8968 126.668 28.5593 126.42C27.1613 125.393 25.8048 124.316 24.4897 123.188C19.8284 119.196 15.7094 114.611 12.2377 109.55C11.0261 107.785 9.89536 105.964 8.84536 104.087C3.02646 93.6694 -0.019265 81.9322 9.16904e-05 70C9.16904e-05 31.3405 31.3406 0 70.0001 0C108.66 0 140 31.3405 140 70Z" fill="#065CC1"/>
<path opacity="0.2" d="M79.5938 135.792C79.8174 135.741 80.039 135.685 80.2606 135.629C80.4574 135.579 80.652 135.527 80.8488 135.476C80.8591 135.063 80.8736 134.61 80.8881 134.119C81.0103 130.275 81.2982 124.087 81.9775 116.631C82.0148 116.232 82.052 115.829 82.0893 115.424C82.3316 112.897 82.6154 110.24 82.955 107.486C82.9654 107.395 82.9778 107.306 82.9881 107.215C83.2636 104.982 83.5763 102.689 83.9284 100.353C84.1748 98.7193 84.4413 97.0673 84.7278 95.3974C84.7485 95.2814 84.7692 95.1634 84.7899 95.0474C84.8727 94.5649 84.9577 94.0844 85.0446 93.5998C85.2869 92.2515 85.5458 90.895 85.8171 89.5385C86.7719 84.7669 87.9088 79.9663 89.2653 75.2962C90.6433 70.4529 92.3404 65.7061 94.3455 61.0871C95.9007 57.4988 97.7531 54.0468 99.8834 50.7672C99.9145 50.7196 99.9455 50.674 99.9766 50.6264C102.7 46.5237 105.813 43.0424 109.367 40.4391L108.629 39.4326C105.225 41.9282 102.101 45.2487 99.26 49.3942C99.2455 49.4149 99.2331 49.4335 99.2186 49.4542C97.0819 52.6227 95.2169 55.9662 93.6435 59.4489C91.5366 64.1074 89.7595 68.908 88.3251 73.8155C86.9665 78.3758 85.7481 83.3165 84.6698 88.6376C84.2908 90.5119 83.9291 92.4324 83.5846 94.3992C83.5266 94.7347 83.4686 95.0702 83.4106 95.4078C83.4106 95.4119 83.4086 95.4181 83.4086 95.4223C83.3195 95.94 83.2346 96.4578 83.1476 96.9817C82.9322 98.3009 82.7293 99.6098 82.5387 100.908C82.2446 102.909 81.9789 104.875 81.7414 106.807C81.6627 107.444 81.5868 108.077 81.5136 108.706C81.41 109.592 81.312 110.467 81.2195 111.33C81.089 112.531 80.9696 113.706 80.8612 114.857L80.8301 115.173C80.8136 115.356 80.797 115.538 80.7804 115.718C79.9396 124.787 79.6766 132.112 79.5938 135.792Z" fill="black"/>
<path opacity="0.2" d="M95.4702 129.845C95.493 129.833 95.5178 129.82 95.5406 129.808C95.9672 129.586 96.3897 129.361 96.8122 129.129C96.951 127.476 97.1374 125.66 97.3817 123.75C97.4335 123.357 97.4853 122.957 97.5433 122.555C97.5723 122.34 97.6033 122.123 97.6344 121.903C97.8788 120.221 98.1687 118.486 98.5167 116.742C99.9311 109.626 102.28 102.353 106.179 97.8628C106.389 97.6205 106.602 97.3885 106.823 97.1628C107.373 96.5921 107.969 96.069 108.607 95.5992L107.869 94.5947C106.979 95.2529 106.16 96.0018 105.426 96.8293C105.167 97.1172 104.914 97.4168 104.668 97.7282C101.078 102.245 98.8377 108.932 97.4418 115.553C97.0773 117.281 96.7708 119.006 96.5099 120.685C96.4436 121.124 96.3801 121.559 96.3193 121.99C95.9155 124.836 95.6483 127.524 95.4702 129.845Z" fill="black"/>
<path opacity="0.2" d="M116.331 40.411C119.772 40.411 122.562 37.6211 122.562 34.1796C122.562 30.7381 119.772 27.9482 116.331 27.9482C112.889 27.9482 110.1 30.7381 110.1 34.1796C110.1 37.6211 112.889 40.411 116.331 40.411Z" fill="black"/>
<path opacity="0.2" d="M114.324 94.0516C117.766 94.0516 120.555 91.2617 120.555 87.8202C120.555 84.3787 117.766 81.5889 114.324 81.5889C110.883 81.5889 108.093 84.3787 108.093 87.8202C108.093 91.2617 110.883 94.0516 114.324 94.0516Z" fill="black"/>
<path opacity="0.2" d="M91.5924 44.6462C92.9138 52.1012 89.9968 58.8517 89.9968 58.8517C89.9968 58.8517 84.9374 53.5151 83.616 46.06C82.2946 38.6049 85.2116 31.8545 85.2116 31.8545C85.2116 31.8545 90.271 37.1911 91.5924 44.6462Z" fill="black"/>
<path opacity="0.2" d="M112.302 62.3427C105.191 64.9428 98.0459 63.2742 98.0459 63.2742C98.0459 63.2742 102.429 57.3899 109.54 54.7897C116.651 52.1896 123.796 53.8582 123.796 53.8582C123.796 53.8582 119.413 59.7425 112.302 62.3427Z" fill="black"/>
<path opacity="0.2" d="M113.508 109.843C108.524 111.666 103.508 110.477 103.508 110.477C103.508 110.477 106.574 106.333 111.558 104.511C116.542 102.688 121.557 103.877 121.557 103.877C121.557 103.877 118.492 108.021 113.508 109.843Z" fill="black"/>
<path d="M89.4541 108.795L89.7068 108.925C89.6819 109.195 89.6219 109.36 89.4541 108.795Z" fill="#2F2E41"/>
<path d="M89.7873 108.882C89.7894 108.911 89.7935 108.942 89.7956 108.971L89.7065 108.926C89.7086 108.899 89.7107 108.87 89.7148 108.841C89.7356 108.478 89.7107 108.05 89.7873 108.882Z" fill="#2F2E41"/>
<path d="M62.8877 98.9745C81.6697 98.9745 96.8955 83.7487 96.8955 64.9668C96.8955 46.1848 81.6697 30.959 62.8877 30.959C44.1057 30.959 28.8799 46.1848 28.8799 64.9668C28.8799 83.7487 44.1057 98.9745 62.8877 98.9745Z" fill="#2F2E41"/>
<path d="M65.6873 97.5884C77.0616 97.5884 86.2823 88.3677 86.2823 76.9934C86.2823 65.6191 77.0616 56.3984 65.6873 56.3984C54.313 56.3984 45.0923 65.6191 45.0923 76.9934C45.0923 88.3677 54.313 97.5884 65.6873 97.5884Z" fill="#D0CDE1"/>
<path d="M112.714 116.466L112.689 116.473L107.899 117.622L97.9247 120.016L96.564 120.343L81.396 123.982L80.1078 124.293L44.3081 132.123C41.8204 131.172 39.3898 130.077 37.0285 128.845C37.0057 128.833 36.9809 128.82 36.9581 128.808C36.8235 128.737 36.691 128.669 36.5584 128.596C36.2664 128.443 35.9758 128.287 35.6865 128.128C34.0401 127.223 32.4357 126.256 30.8735 125.225C30.4717 124.962 30.0741 124.695 29.6806 124.423C29.5543 124.336 29.43 124.249 29.3057 124.162C29.1753 124.071 29.0448 123.98 28.9164 123.889C28.5747 123.647 28.235 123.402 27.8975 123.154C31.472 116.657 38.9838 113.339 47.4957 110.976C53.9199 109.191 55.3324 103.324 55.2102 98.1027C55.1791 96.9118 55.0782 95.7238 54.9078 94.5447C54.6483 92.6681 54.2355 90.816 53.6735 89.0068L74.2697 89.6944L76.3945 94.5903C76.3364 95.128 76.3177 95.6693 76.3386 96.2098C76.5001 100.225 78.9791 102.823 82.038 104.498C82.4356 104.715 82.8436 104.918 83.2578 105.107C88.2738 107.387 94.1782 107.542 94.1782 107.542C95.9762 107.344 97.7923 107.378 99.5815 107.644C100.016 107.71 100.439 107.789 100.849 107.882C103.243 108.417 105.505 109.429 107.499 110.858C108.261 111.4 108.981 111.997 109.655 112.645C110.852 113.766 111.882 115.053 112.714 116.466Z" fill="#D0CDE1"/>
<path d="M115.803 119.181C115.716 119.262 115.629 119.34 115.542 119.421C113.718 121.088 111.806 122.658 109.816 124.122C108.48 125.11 107.109 126.048 105.703 126.937C105.394 127.134 105.084 127.327 104.771 127.517C104.228 127.848 103.681 128.172 103.129 128.488C102.408 128.902 101.678 129.303 100.94 129.691C100.641 129.851 100.341 130.004 100.041 130.157C99.6017 130.383 99.1606 130.6 98.7153 130.814C98.6387 130.851 98.562 130.888 98.4854 130.924L97.6094 130.197L107.898 117.621L109.967 115.093C109.967 115.093 110.793 115.093 112.688 116.472C113.736 117.252 114.726 118.106 115.65 119.028C115.7 119.079 115.751 119.129 115.803 119.181Z" fill="#D0CDE1"/>
<path d="M116.539 122.325C116.508 122.455 116.467 122.582 116.416 122.704C112.958 125.748 107.702 129.419 103.836 131.539C103.107 131.939 102.37 132.327 101.624 132.701C101.323 132.855 101.02 133.003 100.717 133.15C100.274 133.368 99.8289 133.577 99.3797 133.782C99.3024 133.818 99.2251 133.854 99.1478 133.887C98.8553 134.023 98.5588 134.154 98.2622 134.285C94.4 135.98 90.3912 137.319 86.2857 138.286C86.2628 138.292 86.242 138.296 86.2191 138.301C85.9507 138.365 85.6803 138.426 85.4099 138.485C85.2082 138.531 85.0044 138.575 84.8006 138.617C84.7754 138.624 84.7497 138.63 84.7236 138.634C84.3056 138.724 83.8877 138.809 83.4658 138.886C83.2288 138.931 82.9918 138.977 82.7549 139.02C82.6114 139.048 82.466 139.073 82.3226 139.097C82.1418 139.129 81.9631 139.158 81.7823 139.19C81.6825 139.209 81.5828 139.224 81.4811 139.239C81.2525 139.276 81.024 139.313 80.7975 139.348C80.4112 139.407 80.0207 139.464 79.6324 139.515C79.35 139.553 79.0697 139.589 78.7873 139.623C78.4552 139.665 78.123 139.702 77.7889 139.737C77.6975 139.75 77.6062 139.759 77.5149 139.768C77.3966 139.78 77.2783 139.792 77.16 139.804C76.9214 139.829 76.6827 139.851 76.4421 139.872C76.3176 139.884 76.1952 139.894 76.0707 139.904C75.8342 139.925 75.5977 139.943 75.3613 139.959C75.0564 139.983 74.7515 140.002 74.4446 140.021C74.0713 140.043 73.7002 140.063 73.325 140.079C73.0845 140.089 72.844 140.099 72.6015 140.107C71.9839 140.129 71.3664 140.14 70.7449 140.145C70.4362 140.147 70.1255 140.148 69.8148 140.146L69.8086 140.146C69.5 140.145 69.1894 140.141 68.8788 140.135C65.7312 140.078 62.5909 139.809 59.4794 139.331C57.197 138.982 54.9533 138.524 52.7481 137.958C52.6595 137.936 52.5708 137.914 52.4843 137.889C52.2616 137.833 52.0411 137.773 51.8206 137.713C51.6248 137.66 51.4311 137.605 51.2354 137.549C46.1902 136.136 41.3212 134.156 36.7213 131.647C36.6988 131.634 36.6741 131.621 36.6516 131.609C36.5183 131.536 36.3871 131.465 36.2559 131.39C47.6709 128.953 65.7094 125.111 81.3618 121.822C81.8005 121.731 82.2365 121.64 82.6697 121.548C88.4507 120.334 93.8656 119.205 98.4464 118.26C98.9204 118.164 99.3848 118.069 99.8394 117.976C104.761 116.965 108.583 116.2 110.655 115.82C111.214 115.703 111.778 115.614 112.346 115.555L116.531 122.313L116.539 122.325Z" fill="#2F2E41"/>
<path d="M31.7745 50.4953C37.3691 50.4953 41.9045 45.96 41.9045 40.3653C41.9045 34.7707 37.3691 30.2354 31.7745 30.2354C26.1799 30.2354 21.6445 34.7707 21.6445 40.3653C21.6445 45.96 26.1799 50.4953 31.7745 50.4953Z" fill="#2F2E41"/>
<path d="M94.0011 47.6008C99.5957 47.6008 104.131 43.0654 104.131 37.4708C104.131 31.8762 99.5957 27.3408 94.0011 27.3408C88.4064 27.3408 83.8711 31.8762 83.8711 37.4708C83.8711 43.0654 88.4064 47.6008 94.0011 47.6008Z" fill="#2F2E41"/>
<path d="M83.1477 33.13C83.1481 30.6315 84.0717 28.2213 85.7412 26.3626C87.4107 24.5038 89.7083 23.3275 92.1924 23.0599C90.7777 22.9054 89.3463 23.0506 87.9916 23.4863C86.6368 23.9219 85.389 24.6381 84.3295 25.5881C83.27 26.5382 82.4225 27.7009 81.8424 29.0003C81.2622 30.2998 80.9624 31.7069 80.9624 33.13C80.9624 34.5531 81.2622 35.9602 81.8424 37.2597C82.4225 38.5591 83.27 39.7218 84.3295 40.6719C85.389 41.6219 86.6368 42.3381 87.9916 42.7737C89.3463 43.2093 90.7777 43.3546 92.1924 43.2001C89.7083 42.9324 87.4107 41.7562 85.7412 39.8974C84.0717 38.0387 83.1481 35.6285 83.1477 33.13Z" fill="#2F2E41"/>
<path d="M20.4553 48.5589C18.7069 46.7741 17.6799 44.4061 17.5715 41.91C17.4631 39.4139 18.281 36.9658 19.868 35.0361C18.7494 35.9158 17.8287 37.0213 17.1659 38.2806C16.503 39.5399 16.113 40.9248 16.0211 42.3449C15.9293 43.765 16.1377 45.1885 16.6327 46.5227C17.1278 47.8569 17.8984 49.0719 18.8943 50.0884C19.8903 51.1048 21.0892 51.9001 22.4131 52.4222C23.7369 52.9444 25.1559 53.1818 26.5776 53.1189C27.9993 53.056 29.3918 52.6943 30.6644 52.0573C31.9369 51.4203 33.061 50.5223 33.9633 49.4219C32.0017 50.9692 29.5374 51.737 27.044 51.5777C24.5506 51.4184 22.2041 50.3433 20.4553 48.5589Z" fill="#2F2E41"/>
<path d="M62.8877 49.0479C50.8993 49.0479 41.1807 54.717 41.1807 61.7103C41.1807 64.8394 43.1342 67.6992 46.3588 69.9085L50.5376 66.8806L49.4012 71.6242C49.8728 71.8427 50.3542 72.0542 50.8564 72.2496L57.0992 64.9664V73.9139C59.0134 74.2206 60.9491 74.374 62.8877 74.3728C74.8762 74.3728 84.5948 68.7036 84.5948 61.7103C84.5948 54.717 74.8762 49.0479 62.8877 49.0479Z" fill="#2F2E41"/>
<path d="M83.8713 37.4707C83.8713 37.4707 82.298 44.7064 92.1293 47.6007L83.8713 37.4707Z" fill="#2F2E41"/>
<path d="M41.1805 38.7881C41.1805 38.7881 44.7984 46.8775 33.9448 50.4954L41.1805 38.7881Z" fill="#2F2E41"/>
<path d="M46.5459 85.0787C47.4587 84.8232 47.7015 82.8402 47.0882 80.6496C46.4749 78.4589 45.2378 76.8902 44.3251 77.1457C43.4123 77.4013 43.1695 79.3843 43.7828 81.5749C44.396 83.7655 45.6331 85.3343 46.5459 85.0787Z" fill="#D0CDE1"/>
<path d="M88.3384 77.7853C88.4782 75.5148 87.8246 73.6269 86.8786 73.5686C85.9325 73.5104 85.0522 75.3038 84.9124 77.5743C84.7725 79.8449 85.4261 81.7328 86.3722 81.791C87.3182 81.8493 88.1985 80.0559 88.3384 77.7853Z" fill="#D0CDE1"/>
</svg>
