<svg width="140" height="145" viewBox="0 0 140 145" fill="none" xmlns="http://www.w3.org/2000/svg">
<path d="M140 70C140.012 79.4758 138.094 88.8549 134.363 97.565L134.131 98.0994C127.818 112.46 116.873 124.288 103.045 131.694C89.217 139.1 73.3049 141.654 57.8535 138.95C57.4331 138.875 57.0134 138.798 56.5944 138.718C52.2646 137.879 48.0247 136.628 43.9322 134.984C43.2675 134.717 42.6075 134.44 41.9524 134.154C41.505 133.959 41.0577 133.758 40.6145 133.551C28.4907 127.932 18.2259 118.964 11.03 107.704C3.83416 96.4447 0.00711734 83.3626 0 70C0 31.3405 31.3405 0 70 0C108.659 0 140 31.3405 140 70Z" fill="#D0CDE1"/>
<path opacity="0.2" d="M54.1403 135.95C53.7199 135.876 53.3002 135.799 52.8812 135.718C52.6078 127.784 51.6696 114.5 48.4699 97.4454C46.7199 88.1114 44.2906 78.5433 40.9211 69.9901C39.7667 67.0305 38.4482 64.1377 36.9717 61.325C33.567 54.8945 29.4374 49.4809 24.4297 45.8131L25.167 44.8066C29.3318 47.8593 33.0748 52.1449 36.396 57.6634C37.3921 59.3161 38.3489 61.0792 39.2664 62.9528C40.2501 64.9575 41.1883 67.0858 42.0809 69.3377C42.6504 70.7708 43.2006 72.2537 43.7315 73.7862C46.0427 80.4404 48.0074 88.0327 49.6256 96.5631C49.9838 98.4478 50.3249 100.379 50.6486 102.356C53.1566 117.675 53.9125 128.839 54.1403 135.95Z" fill="black"/>
<path opacity="0.2" d="M38.2389 131.154C37.7915 130.959 37.3442 130.758 36.901 130.551C36.4681 125.85 35.6729 123.018 34.219 117.482C33.5823 114.996 32.7648 112.56 31.7732 110.192C30.1143 106.309 27.9667 103.008 25.1895 100.972L25.9267 99.9678C28.8344 102.097 31.0773 105.462 32.8107 109.399C34.7637 113.835 36.0664 118.998 36.9341 123.931C37.5782 127.595 37.9841 128.134 38.2389 131.154Z" fill="black"/>
<path opacity="0.2" d="M17.4652 45.784C20.9067 45.784 23.6966 42.9941 23.6966 39.5527C23.6966 36.1112 20.9067 33.3213 17.4652 33.3213C14.0238 33.3213 11.2339 36.1112 11.2339 39.5527C11.2339 42.9941 14.0238 45.784 17.4652 45.784Z" fill="black"/>
<path opacity="0.2" d="M19.4721 99.4246C22.9136 99.4246 25.7034 96.6348 25.7034 93.1933C25.7034 89.7518 22.9136 86.9619 19.4721 86.9619C16.0306 86.9619 13.2407 89.7518 13.2407 93.1933C13.2407 96.6348 16.0306 99.4246 19.4721 99.4246Z" fill="black"/>
<path opacity="0.2" d="M42.2039 50.0192C40.8825 57.4743 43.7995 64.2247 43.7995 64.2247C43.7995 64.2247 48.8589 58.8881 50.1803 51.433C51.5017 43.978 48.5847 37.2275 48.5847 37.2275C48.5847 37.2275 43.5252 42.5642 42.2039 50.0192Z" fill="black"/>
<path opacity="0.2" d="M21.4943 67.7157C28.6051 70.3159 35.7504 68.6473 35.7504 68.6473C35.7504 68.6473 31.3669 62.763 24.2561 60.1628C17.1453 57.5626 10 59.2313 10 59.2313C10 59.2313 14.3835 65.1156 21.4943 67.7157Z" fill="black"/>
<path opacity="0.2" d="M20.2888 115.216C25.2729 117.039 30.2882 115.85 30.2882 115.85C30.2882 115.85 27.2228 111.706 22.2387 109.884C17.2546 108.061 12.2393 109.25 12.2393 109.25C12.2393 109.25 15.3047 113.394 20.2888 115.216Z" fill="black"/>
<path d="M67.9159 84.7184C82.9865 84.8977 95.349 72.8259 95.5282 57.7553C95.7075 42.6847 83.6357 30.3222 68.5651 30.1429C53.4945 29.9637 41.132 42.0355 40.9528 57.1061C40.7735 72.1767 52.8453 84.5392 67.9159 84.7184Z" fill="#D0CDE1"/>
<path d="M57.3326 78.1964C57.3326 78.1964 60.5509 94.439 60.5306 96.1445C60.5103 97.85 76.6211 105.717 76.6211 105.717L91.1482 103.332L96.4472 88.0431C96.4472 88.0431 88.0719 75.1506 88.1328 70.0341L57.3326 78.1964Z" fill="#D0CDE1"/>
<path d="M44.8383 35.1649C44.8383 35.1649 53.7253 16.4965 70.2793 21.0259C86.8334 25.5553 96.1418 32.1648 96.7865 38.6712C97.4312 45.1776 96.2323 54.9114 96.2323 54.9114C96.2323 54.9114 94.5862 41.5333 83.0002 44.2839C71.4142 47.0344 53.3904 44.6537 53.3904 44.6537L50.1933 70.6107C50.1933 70.6107 47.0002 65.8791 43.356 68.7241C39.7117 71.5691 33.2179 40.8034 44.8383 35.1649Z" fill="#2F2E41"/>
<path fill-rule="evenodd" clip-rule="evenodd" d="M131.426 103.081L131.704 102.57L94.2868 85.562C94.2868 85.562 93.4837 97.766 80.364 100.882C67.2444 103.998 59.7457 88.9337 59.7457 88.9337L59.7435 88.9356L51.0867 94.4043L49.8576 95.1809L33.2027 105.703L32.0991 106.401L27.8544 109.083L23.8762 111.596L21.9422 112.818L21.9424 112.818L21.942 112.818C21.942 112.818 20.272 113.994 18.1468 116.409C20.5732 119.09 23.1993 121.575 26.0003 123.845C28.2738 125.687 30.6607 127.386 33.147 128.93C33.8044 129.338 34.4689 129.736 35.1403 130.123C35.5635 130.368 35.9913 130.608 36.4196 130.841C37.0468 131.185 37.6797 131.519 38.3183 131.844L38.3181 131.843C38.3183 131.843 38.3184 131.843 38.3185 131.843C42.2495 133.843 46.3621 135.463 50.6007 136.682C51.011 136.799 51.4223 136.913 51.8344 137.025C66.986 141.085 83.0617 139.948 97.4906 133.795C111.92 127.641 123.868 116.827 131.426 103.081Z" fill="#2F2E41"/>
</svg>
