<svg width="24" height="31" viewBox="0 0 24 31" fill="none" xmlns="http://www.w3.org/2000/svg">
<path d="M9.42762 10.5C9.80612 10.5001 10.1691 10.6506 10.4366 10.9184C10.7042 11.1861 10.8544 11.5492 10.8543 11.9277C10.8542 12.3062 10.7037 12.6691 10.436 12.9367C10.1682 13.2043 9.80517 13.3545 9.42667 13.3544C9.04817 13.3543 8.68522 13.2038 8.41766 12.936C8.15011 12.6683 7.99987 12.3052 8 11.9267C8.00013 11.5482 8.15061 11.1852 8.41834 10.9177C8.68607 10.6501 9.04912 10.4999 9.42762 10.5ZM9.71295 19.631L8.19117 18.4905L13.8978 10.8814L15.4196 12.0218L9.71295 19.631ZM14.1832 20.0114C13.9958 20.0114 13.8102 19.9744 13.6371 19.9026C13.4639 19.8308 13.3067 19.7256 13.1742 19.5931C13.0417 19.4605 12.9366 19.3031 12.865 19.13C12.7933 18.9568 12.7564 18.7712 12.7565 18.5838C12.7566 18.3963 12.7936 18.2108 12.8653 18.0376C12.9371 17.8645 13.0423 17.7072 13.1748 17.5747C13.3074 17.4422 13.4648 17.3372 13.638 17.2655C13.8111 17.1938 13.9967 17.157 14.1841 17.157C14.5626 17.1572 14.9256 17.3077 15.1931 17.5754C15.4607 17.8431 15.6109 18.2062 15.6108 18.5847C15.6107 18.9632 15.4602 19.3262 15.1925 19.5937C14.9247 19.8613 14.5617 20.0116 14.1832 20.0114Z" fill="#434458"/>
<path d="M11.418 6.11727C11.7337 5.78238 12.2663 5.78238 12.582 6.11727L14.1163 7.74431C14.3033 7.94272 14.5786 8.03216 14.8466 7.98161L17.0441 7.56709C17.4965 7.48177 17.9273 7.79479 17.9859 8.25133L18.2708 10.4694C18.3055 10.7399 18.4756 10.9741 18.7221 11.0907L20.7436 12.047C21.1597 12.2439 21.3243 12.7503 21.1034 13.1541L20.0301 15.116C19.8992 15.3553 19.8992 15.6447 20.0301 15.884L21.1034 17.8459C21.3243 18.2497 21.1597 18.7561 20.7436 18.953L18.7221 19.9093C18.4756 20.0259 18.3055 20.2601 18.2708 20.5306L17.9859 22.7487C17.9273 23.2052 17.4965 23.5182 17.0441 23.4329L14.8466 23.0184C14.5786 22.9678 14.3033 23.0573 14.1163 23.2557L12.582 24.8827C12.2663 25.2176 11.7337 25.2176 11.418 24.8827L9.88374 23.2557C9.69666 23.0573 9.42139 22.9678 9.15341 23.0184L6.95585 23.4329C6.50355 23.5182 6.07271 23.2052 6.01408 22.7487L5.72923 20.5306C5.6945 20.2601 5.52437 20.0259 5.27786 19.9093L3.25635 18.953C2.84028 18.7561 2.67571 18.2497 2.89663 17.8459L3.96994 15.884C4.10083 15.6447 4.10083 15.3553 3.96994 15.116L2.89663 13.1541C2.67571 12.7503 2.84028 12.2439 3.25635 12.047L5.27786 11.0907C5.52437 10.9741 5.6945 10.7399 5.72923 10.4694L6.01408 8.25133C6.07271 7.79479 6.50354 7.48177 6.95585 7.56709L9.15341 7.98161C9.42139 8.03216 9.69666 7.94272 9.88374 7.74431L11.418 6.11727Z" stroke="#434458" stroke-width="1.5" stroke-linecap="round" stroke-linejoin="round"/>
</svg>
