<svg width="24" height="30" viewBox="0 0 24 30" fill="none" xmlns="http://www.w3.org/2000/svg">
<path fill-rule="evenodd" clip-rule="evenodd" d="M9 5.75C9 5.33579 8.66421 5 8.25 5C7.83579 5 7.5 5.33579 7.5 5.75V7H5.75C4.23122 7 3 8.23122 3 9.75V21.75C3 23.2688 4.23122 24.5 5.75 24.5H17.75C19.2688 24.5 20.5 23.2688 20.5 21.75V9.75C20.5 8.23122 19.2688 7 17.75 7H16V5.75C16 5.33579 15.6642 5 15.25 5C14.8358 5 14.5 5.33579 14.5 5.75V7H9V5.75ZM14.5 9.25V8.5H9V9.25C9 9.66421 8.66421 10 8.25 10C7.83579 10 7.5 9.66421 7.5 9.25V8.5H5.75C5.05964 8.5 4.5 9.05964 4.5 9.75V12.5H19V9.75C19 9.05964 18.4404 8.5 17.75 8.5H16V9.25C16 9.66421 15.6642 10 15.25 10C14.8358 10 14.5 9.66421 14.5 9.25ZM19 14H4.5V21.75C4.5 22.4404 5.05964 23 5.75 23H17.75C18.4404 23 19 22.4404 19 21.75V14Z" fill="#F1A662"/>
</svg>
