<svg width="110" height="97" viewBox="0 0 110 97" fill="none" xmlns="http://www.w3.org/2000/svg">
<path fill-rule="evenodd" clip-rule="evenodd" d="M54.0369 54.4075C54.1274 46.9967 54.0928 30.4737 52.3526 17.4214C52.1064 15.5751 51.7446 13.5905 51.8003 11.7204C51.8196 11.3513 51.8542 10.9916 51.904 10.6414C52.0845 9.37281 52.5519 8.18079 52.5478 8.18079C56.8206 -2.5979 78.0057 -1.5684 90.9513 9.5177C106.143 22.527 109.445 38.2614 109.445 52.2991C109.445 63.6082 99.4277 93.5796 85.5241 80.332L85.0918 79.9069C83.9852 78.7876 82.8552 77.3939 81.7039 75.695C76.0234 67.3103 70.8515 63.3041 66.5532 61.6152L89.7064 36.9424C90.937 35.6309 90.0186 33.466 88.2316 33.466H77.5236C76.9632 33.466 76.4262 33.7005 76.0417 34.1141L54.1589 57.6612C54.1589 57.6612 54.1142 56.4417 54.0369 54.4075ZM40.7536 45.8218V77.9105C40.7536 79.6161 42.1196 80.9986 43.8049 80.9986H51.1076C52.793 80.9986 54.1589 79.6161 54.1589 77.9105V65.2672C55.476 66.9099 57.2733 68.5971 59.696 69.9487C88.7879 87.8684 51.1076 107.316 27.566 90.6699C18.4829 84.2476 10.5677 71.4678 8.0885 60.9144C4.54303 45.8218 8.85584 29.2878 15.2739 20.4372C18.6722 15.7508 24.4995 12.8913 30.4057 15.4203C37.7148 19.4033 40.7536 30.107 40.7536 42.3881C40.7536 43.7913 40.807 44.4398 40.7536 45.8218Z" fill="#FA0DFF"/>
<path fill-rule="evenodd" clip-rule="evenodd" d="M47.7788 54.4075C47.8693 46.9966 47.8347 30.4737 46.0945 17.4214C45.8483 15.5751 45.4866 13.5905 45.5422 11.7204C45.5615 11.3513 45.5961 10.9916 45.646 10.6413C45.8265 9.37281 46.2939 8.18079 46.2898 8.18079C50.5626 -2.59789 71.7477 -1.5684 84.6932 9.5177C99.8846 22.527 103.187 38.2614 103.187 52.2991C103.187 63.6082 93.1697 93.5796 79.266 80.332L78.8337 79.9069C77.7271 78.7876 76.5972 77.3938 75.4458 75.695C69.7653 67.3103 64.5934 63.3041 60.2952 61.6152L83.4483 36.9424C84.679 35.6309 83.7606 33.466 81.9735 33.466H71.2655C70.7051 33.466 70.1681 33.7005 69.7836 34.1141L47.9009 57.6612C47.9009 57.6612 47.8561 56.4417 47.7788 54.4075ZM34.4956 45.8218V77.9105C34.4956 79.6161 35.8615 80.9986 37.5468 80.9986H44.8496C46.5349 80.9986 47.9009 79.6161 47.9009 77.9105V65.2672C49.218 66.9099 51.0152 68.5971 53.4379 69.9487C82.5299 87.8684 44.8496 107.316 21.3079 90.6699C12.2249 84.2476 4.30962 71.4678 1.83045 60.9144C-1.71503 45.8218 2.59779 29.2878 9.01581 20.4372C12.4142 15.7508 18.2414 12.8913 24.1477 15.4203C31.4567 19.4033 34.4956 30.107 34.4956 42.3881C34.4956 43.7913 34.549 44.4398 34.4956 45.8218Z" fill="#2B6AF6"/>
<path fill-rule="evenodd" clip-rule="evenodd" d="M50.9078 53.7815C50.9984 46.3707 50.9638 29.8477 49.2235 16.7954C48.9774 14.9491 48.6156 12.9645 48.6712 11.0944C48.6906 10.7253 48.7252 10.3656 48.775 10.0154C48.9555 8.74683 49.4229 7.55481 49.4188 7.55481C53.6916 -3.22387 74.8767 -2.19437 87.8223 8.89173C103.014 21.901 106.316 37.6354 106.316 51.6731C106.316 62.9822 96.2987 92.9536 82.395 79.7061L81.9628 79.2809C80.8562 78.1616 79.7262 76.7679 78.5748 75.069C72.8944 66.6843 67.7224 62.6781 63.4242 60.9892L86.5773 36.3164C87.808 35.0049 86.8896 32.84 85.1025 32.84H74.3946C73.8342 32.84 73.2971 33.0746 72.9127 33.4882L51.0299 57.0352C51.0299 57.0352 50.9851 55.8157 50.9078 53.7815ZM37.6246 45.1959V77.2845C37.6246 78.9901 38.9905 80.3726 40.6759 80.3726H47.9786C49.6639 80.3726 51.0299 78.9901 51.0299 77.2845V64.6412C52.347 66.2839 54.1442 67.9711 56.5669 69.3227C85.6589 87.2424 47.9786 106.69 24.4369 90.044C15.3539 83.6216 7.43865 70.8419 4.95947 60.2884C1.414 45.1959 5.72681 28.6618 12.1448 19.8112C15.5432 15.1248 21.3704 12.2654 27.2767 14.7943C34.5857 18.7774 37.6246 29.481 37.6246 41.7621C37.6246 43.1653 37.678 43.8138 37.6246 45.1959Z" fill="white"/>
</svg>
