<svg width="184" height="39" viewBox="0 0 184 39" fill="none" xmlns="http://www.w3.org/2000/svg">
<path fill-rule="evenodd" clip-rule="evenodd" d="M39.2811 11.2999C40.5172 14.2696 40.9441 17.3123 41 20.1988C40.8867 24.7694 39.3202 28.9737 36.7513 32.354C35.2642 33.8041 33.4582 34.1525 31.4491 32.216L31.2763 32.0442C30.8342 31.5918 30.3827 31.0284 29.9227 30.3418C27.6531 26.9528 25.5866 25.3336 23.8693 24.6509L33.1201 14.6786C33.6118 14.1485 33.2449 13.2734 32.5308 13.2734H28.2525C28.0285 13.2734 27.814 13.3683 27.6604 13.5354L18.9171 23.0528C18.9171 23.0528 18.8992 22.5599 18.8683 21.7377C18.9045 18.7423 18.8907 12.064 18.1954 6.78846C18.1401 5.95467 18.0893 5.38679 18.0475 5.21498C17.9869 4.967 17.9678 4.7191 17.9747 4.48418C17.9824 4.33498 17.9962 4.18965 18.0162 4.04805C18.1072 3.47177 18.3112 3.05354 18.3112 3.05354H18.2734C19.7218 -0.642716 26.0344 -0.903421 31.0737 1.83903C34.6844 4.04722 37.5696 7.35248 39.2811 11.2999ZM2.3808 9.9283C4.41788 6.20787 7.25711 5.03996 9.42651 5.97963C12.3469 7.58953 13.561 11.9158 13.561 16.8796C13.561 17.082 13.5638 17.2455 13.5662 17.3975C13.5708 17.6716 13.5747 17.9082 13.561 18.2675V31.2373C13.561 31.9266 14.1068 32.4854 14.7802 32.4854H17.698C18.3713 32.4854 18.9171 31.9266 18.9171 31.2373V26.127C19.4434 26.7909 20.1614 27.4729 21.1295 28.0192C32.7531 35.2621 17.4084 43.3112 8.20127 36.3057C4.84192 33.7498 2.09548 29.5699 0.860414 25.6471C0.30071 23.7527 0 21.7448 0 19.6656C0 16.1475 0.860966 12.8334 2.3808 9.9283Z" fill="#065CC1"/>
<path d="M61.8666 29.0268C61.5683 29.0268 61.288 28.8868 61.1127 28.6503L55.2141 20.6931V28.1136C55.2141 28.618 54.7969 29.0268 54.2823 29.0268H49.9318C49.4172 29.0268 49 28.618 49 28.1136V3.58566C49 3.08133 49.4172 2.67249 49.9318 2.67249H54.2823C54.7969 2.67249 55.2141 3.08133 55.2141 3.58566V17.2386L61.076 9.52209C61.2518 9.2906 61.5289 9.15421 61.8234 9.15421H67.041C67.8298 9.15421 68.2617 10.0548 67.7585 10.65L60.5923 19.1261L67.8064 27.5256C68.3165 28.1195 67.8857 29.0268 67.0936 29.0268H61.8666ZM78.8771 29.3117C76.8905 29.3117 75.0978 28.8962 73.4988 28.0652C71.9241 27.2342 70.6764 26.0471 69.7558 24.5038C68.8595 22.9605 68.4113 21.1561 68.4113 19.0905C68.4113 17.0486 68.8716 15.2561 69.7922 13.7128C70.7128 12.1458 71.9726 10.9468 73.5715 10.1158C75.1704 9.2848 76.9632 8.8693 78.9497 8.8693C80.9363 8.8693 82.7291 9.2848 84.328 10.1158C85.9269 10.9468 87.1867 12.1458 88.1073 13.7128C89.0279 15.2561 89.4882 17.0486 89.4882 19.0905C89.4882 21.1324 89.0158 22.9368 88.071 24.5038C87.1504 26.0471 85.8785 27.2342 84.2553 28.0652C82.6564 28.8962 80.8636 29.3117 78.8771 29.3117ZM78.8771 24.0408C80.0642 24.0408 81.0696 23.6135 81.8932 22.7587C82.7412 21.904 83.1651 20.6813 83.1651 19.0905C83.1651 17.4997 82.7533 16.277 81.9296 15.4223C81.1301 14.5675 80.1368 14.1402 78.9497 14.1402C77.7384 14.1402 76.733 14.5675 75.9336 15.4223C75.1341 16.2533 74.7344 17.476 74.7344 19.0905C74.7344 20.6813 75.122 21.904 75.8972 22.7587C76.6967 23.6135 77.69 24.0408 78.8771 24.0408ZM99.2171 29.3117C97.4485 29.3117 95.8738 29.0149 94.4929 28.4213C93.112 27.8278 92.0218 27.0205 91.2223 25.9996C90.6298 25.2254 90.2303 24.386 90.0237 23.4815C89.9053 22.9634 90.3394 22.5094 90.8811 22.5094H95.1789C95.6562 22.5094 96.035 22.8776 96.2414 23.2995C96.4073 23.6388 96.6602 23.9333 97.0003 24.1833C97.5818 24.6107 98.2964 24.8243 99.1444 24.8243C99.9196 24.8243 100.513 24.6819 100.925 24.397C101.361 24.0883 101.579 23.6966 101.579 23.2217C101.579 22.6519 101.276 22.2364 100.671 21.9752C100.065 21.6903 99.0838 21.3817 97.7271 21.0493C96.2736 20.7169 95.0622 20.3726 94.0931 20.0165C93.1241 19.6366 92.2883 19.0549 91.5857 18.2714C90.8831 17.4641 90.5319 16.3838 90.5319 15.0305C90.5319 13.8909 90.8468 12.8581 91.4767 11.9321C92.1308 10.9824 93.0756 10.2345 94.3112 9.68842C95.5711 9.14234 97.0609 8.8693 98.781 8.8693C101.325 8.8693 103.323 9.48661 104.777 10.7212C106.005 11.7472 106.799 13.052 107.156 14.6355C107.276 15.1646 106.84 15.6359 106.286 15.6359H102.391C101.926 15.6359 101.553 15.2873 101.356 14.8737C101.193 14.5309 100.953 14.2389 100.634 13.9977C100.126 13.5941 99.4472 13.3923 98.5993 13.3923C97.8725 13.3923 97.3153 13.5347 96.9277 13.8196C96.54 14.0808 96.3462 14.4488 96.3462 14.9237C96.3462 15.4935 96.6491 15.9209 97.2547 16.2058C97.8846 16.4907 98.8537 16.7756 100.162 17.0605C101.664 17.4404 102.887 17.8203 103.832 18.2001C104.777 18.5563 105.601 19.1499 106.303 19.9808C107.03 20.7881 107.406 21.8803 107.43 23.2573C107.43 24.4207 107.091 25.4654 106.412 26.3913C105.758 27.2936 104.801 28.0058 103.541 28.5282C102.306 29.0505 100.864 29.3117 99.2171 29.3117ZM121.879 8.94053C124.205 8.94053 126.07 9.70029 127.475 11.2198C128.88 12.7156 129.583 14.7812 129.583 17.4166V28.1136C129.583 28.618 129.166 29.0268 128.651 29.0268H124.337C123.823 29.0268 123.405 28.618 123.405 28.1136V18.2358C123.405 16.9062 123.054 15.8734 122.351 15.1374C121.649 14.4013 120.704 14.0333 119.517 14.0333C118.33 14.0333 117.385 14.4013 116.682 15.1374C115.98 15.8734 115.629 16.9062 115.629 18.2358V28.1136C115.629 28.618 115.212 29.0268 114.697 29.0268H110.346C109.832 29.0268 109.414 28.618 109.414 28.1136V3.58566C109.414 3.08133 109.832 2.67249 110.346 2.67249H114.697C115.212 2.67249 115.629 3.08133 115.629 3.58566V11.8253C116.258 10.9468 117.118 10.2464 118.209 9.72404C119.299 9.2017 120.522 8.94053 121.879 8.94053ZM137.366 9.15421C137.881 9.15421 138.298 9.56304 138.298 10.0674V28.1136C138.298 28.618 137.881 29.0268 137.366 29.0268H133.016C132.501 29.0268 132.084 28.618 132.084 28.1136V10.0674C132.084 9.56304 132.501 9.15421 133.016 9.15421H137.366ZM139.749 19.1261C139.749 17.1555 140.161 15.3985 140.984 13.8552C141.832 12.312 142.959 11.113 144.364 10.2582C145.793 9.37977 147.344 8.94053 149.015 8.94053C150.299 8.94053 151.45 9.16609 152.468 9.6172C153.485 10.0446 154.309 10.65 154.939 11.4335V10.0674C154.939 9.56304 155.356 9.15421 155.87 9.15421H160.221C160.736 9.15421 161.153 9.56304 161.153 10.0674V37.5869C161.153 38.0912 160.736 38.5001 160.221 38.5001H155.87C155.356 38.5001 154.939 38.0912 154.939 37.5869V26.5338C154.236 27.3648 153.376 28.0296 152.359 28.5282C151.365 29.0268 150.227 29.2761 148.943 29.2761C147.295 29.2761 145.769 28.8487 144.364 27.994C142.959 27.1392 141.832 25.9402 140.984 24.397C140.161 22.8537 139.749 21.0967 139.749 19.1261ZM154.939 19.0905C154.939 18.0221 154.721 17.1317 154.285 16.4195C153.873 15.6834 153.328 15.1374 152.649 14.7812C151.971 14.4013 151.256 14.2114 150.505 14.2114C149.778 14.2114 149.076 14.4013 148.397 14.7812C147.719 15.1374 147.162 15.6834 146.726 16.4195C146.29 17.1555 146.072 18.0577 146.072 19.1261C146.072 20.1945 146.29 21.0967 146.726 21.8328C147.162 22.545 147.719 23.0911 148.397 23.471C149.076 23.8271 149.778 24.0052 150.505 24.0052C151.232 24.0052 151.935 23.8271 152.613 23.471C153.315 23.0911 153.873 22.5332 154.285 21.7972C154.721 21.0611 154.939 20.1589 154.939 19.0905ZM162.596 19.0549C162.596 17.013 162.984 15.2205 163.759 13.6772C164.558 12.1339 165.636 10.9468 166.993 10.1158C168.35 9.2848 169.864 8.8693 171.536 8.8693C172.965 8.8693 174.213 9.15421 175.279 9.72404C176.369 10.2939 177.204 11.0417 177.786 11.9677V10.0674C177.786 9.56304 178.203 9.15421 178.718 9.15421H183.068C183.583 9.15421 184 9.56304 184 10.0674V28.1136C184 28.618 183.583 29.0268 183.068 29.0268H178.718C178.203 29.0268 177.786 28.618 177.786 28.1136V26.2133C177.18 27.1392 176.332 27.8871 175.242 28.457C174.176 29.0268 172.929 29.3117 171.499 29.3117C169.852 29.3117 168.35 28.8962 166.993 28.0652C165.636 27.2105 164.558 26.0115 163.759 24.4682C162.984 22.9012 162.596 21.0967 162.596 19.0549ZM177.786 19.0905C177.786 17.571 177.35 16.372 176.478 15.4935C175.63 14.615 174.588 14.1758 173.353 14.1758C172.117 14.1758 171.063 14.615 170.191 15.4935C169.343 16.3482 168.919 17.5354 168.919 19.0549C168.919 20.5744 169.343 21.7853 170.191 22.6875C171.063 23.566 172.117 24.0052 173.353 24.0052C174.588 24.0052 175.63 23.566 176.478 22.6875C177.35 21.809 177.786 20.61 177.786 19.0905Z" fill="#15162F"/>
<path d="M132.505 6.67964C133.197 7.35332 134.08 7.69015 135.155 7.69015C136.205 7.69015 137.065 7.35332 137.733 6.67964C138.425 5.98006 138.771 5.12502 138.771 4.11451C138.771 3.0781 138.425 2.22305 137.733 1.54937C137.065 0.849794 136.205 0.5 135.155 0.5C134.08 0.5 133.197 0.849794 132.505 1.54937C131.836 2.22305 131.502 3.0781 131.502 4.11451C131.502 5.12502 131.836 5.98006 132.505 6.67964Z" fill="#E35112"/>
</svg>
